<svg xmlns="http://www.w3.org/2000/svg" viewBox="0 0 512.29 512.364"><title>Hockey Hall of Fame Badge</title><path d="M486.08 142.495c31.803 61.952 34.836 146.38 7.264 211.06-35.43 91.405-130.234 156.702-228.367 158.518-98.734 3.344-190.802-51.32-236.84-138.475-34.83-65.297-37.854-156.71-5.145-224.118C49.947 89.047 107.5 36.504 169.276 15.557 264.68-19.368 374.928 6.14 443.986 81.15c16.954 18.523 31.5 39.478 42.093 61.345z" fill="#0093CF" stroke="#FFF" stroke-width=".29" stroke-miterlimit="50"/><path d="M486.08 142.495c31.803 61.952 34.836 146.38 7.264 211.06-35.43 91.405-130.234 156.702-228.367 158.518-98.734 3.344-190.802-51.32-236.84-138.475-34.83-65.297-37.854-156.71-5.145-224.118C49.947 89.047 107.5 36.504 169.276 15.557 264.68-19.368 374.928 6.14 443.986 81.15c16.954 18.523 31.5 39.478 42.093 61.345z" fill="#005499"/><path d="M474.878 138.542c31.804 57.696 38.157 137.57 14.842 200.732-19.69 59.216-70.258 116.008-128.418 141.515-55.112 27.33-132.346 29.763-190.498 7.592-64.21-21.86-123.873-80.17-146.588-144.852-23.02-58.912-20.595-135.138 6.97-191.314C74.182 58.98 172.307 1.283 274.377 9.18c83.292 5.16 160.214 54.664 200.5 129.362z" fill="#FFF"/><path d="M469.43 144.927c31.49 57.4 35.436 142.124 8.464 202.86-32.7 83.82-118.712 143.644-207.46 146.98C177.15 499.927 90.53 452.25 45.1 369.647c-34.526-60.13-37.854-148.493-7.874-211.358C64.18 94.51 127.182 41.976 192.6 24.966c94.196-24.9 192.625 5.465 253.202 83.21 9.08 11.54 16.658 23.988 23.627 36.75z" fill="#005499"/><path d="M417.942 185.613c26.948 58.912 14.234 136.66-27.572 184.337-45.734 54.055-120.24 74.394-187.474 52.84-62.696-17.915-114.79-80.476-120.544-145.765-8.177-67.417 22.107-131.194 79.355-168.543 41.19-27.636 100.246-36.445 149.316-19.74 45.726 13.97 88.132 51.928 106.92 96.87z" fill="#FFF"/><path d="M377.656 140.062h.608l-.304.608c43.006 44.638 57.24 114.184 35.437 173.104-6.97 18.523-16.666 35.837-30.284 51.327-1.824-.303-3.64-1.52-5.153-2.43 1.216-1.21 3.328-1.52 4.85-2.737l-7.578-2.728c2.432-1.224 5.76-2.128 8.785-3.64l-11.81-3.04c3.64-1.825 8.185-2.13 12.426-3.345.304.296.304 0 .304 0-5.457-1.824-11.514-3.344-17.266-4.553l.913-.608c6.36-.913 12.722-2.13 19.083-3.954-8.185-2.128-17.57-2.728-26.052-4.857 9.09-1.817 18.17-2.425 26.956-4.25v-.304c-11.498-1.52-23.62-2.736-35.43-3.945 12.42-2.127 26.045-3.04 39.374-4.856-13.938-1.512-30.284-3.032-45.734-4.25l.904-.607c14.546-1.208 29.988-2.12 44.534-4.25-13.938-1.52-28.172-2.43-41.798-3.952 13.026-1.512 27.86-2.728 41.486-3.64v-.608l-39.677-4.857.615-.6 41.19-3.945.6-.608c-.6-.608-1.208-.608-1.512 0-15.442-2.736-30.884-3.64-46.334-5.465 16.345-2.12 34.22-3.04 50.574-4.865-18.467-2.728-38.765-3.945-58.144-6.073 17.866-2.12 36.653-3.945 54.816-5.77-19.987-2.423-43.014-3.335-63.6-5.464 21.202-2.128 42.997-2.736 63.904-5.17l-74.81-5.464h-.608c22.41-2.432 46.646-3.336 69.362-5.77-26.044-2.43-53.91-3.952-81.17-5.768 28.17-2.424 56.343-3.336 84.803-5.465l-9.08-1.208-72.69-5.473c27.563-2.12 54.214-3.336 81.77-5.16v-.305l-78.747-6.377c23.627-2.424 47.254-2.12 70.874-4.857-22.715-3.032-46.334-4.857-69.658-6.977 21.203-2.432 43.318-3.04 64.21-5.17l-.913-.607-62.69-6.074 1.52-.912 54.208-3.945 3.337-.305-61.48-5.77c19.083-1.52 39.67-2.735 59.064-3.944l-2.12-.91-60.88-5.162c18.788-2.432 39.366-2.736 58.153-4.857l-.608-.607-62.993-4.857c19.075-2.12 39.373-3.04 59.064-4.553v-.608l-68.45-4.56c19.068-2.433 39.062-3.04 57.85-5.162-23.332-1.816-47.56-2.728-71.18-3.945 19.988-2.432 40.583-2.736 60.577-4.865-23.323-2.424-46.646-3.344-70.57-4.857v-.304c18.17-1.216 37.853-1.824 55.424-3.64-20.595-1.52-39.67-3.04-60.568-3.954v-.304c17.56-1.52 35.428-2.128 52.39-3.64-17.554-2.432-36.34-3.344-54.51-4.857l.903-.304 41.806-3.64c-13.33-2.433-28.47-3.04-42.103-5.162 10.6-1.52 22.107-1.823 32.404-3.343-9.984-2.12-20.898-3.64-31.195-5.16 6.657-2.13 15.146-1.52 22.723-2.73-7.89-2.127-16.666-3.04-25.45-4.248 7.568-1.52 15.145-2.12 23.018-3.04 35.082 6.026 66.287 22.43 92.33 49.152z" fill="#005499"/><path d="M210.49 98.21c-2.425 1.823-5.762 4.864-6.362 8.504-1.216 4.857-.304 10.625.6 15.49l-1.512 1.52c-15.442-1.216-27.868 6.68-39.373 16.394-12.722 10.625-38.165 9.72-38.765 31.884-.304 7.897 2.12 14.882 4.85 21.26-1.817 1.215-5.45.303-5.754 3.04l3.328 20.65c-2.12 2.432-4.545 5.77-2.728 8.81 6.36 3.647-4.545 4.552-.304 8.808 5.145 3.04-2.12 7.29 1.208 11.242 7.265 3.648 7.57 13.666 15.746 15.794 8.48-1.816 14.538 8.497 21.81 1.824l-6.056-7.29-2.12-12.753c7.265 6.377 13.026 12.754 19.683 19.74-.903 1.823-3.936 3.343-3.63 5.16 1.815-.608 3.03-2.736 4.848-3.945 2.424 1.52 4.545 3.945 6.36 6.377-1.207 1.823-3.03 3.03-3.936 4.856l.304.296c2.12-.912 3.632-3.945 5.753-3.64l5.752 5.77c-1.208 1.823-3.328 3.343-4.545 5.16l.304.304 4.85-3.945c3.937 3.033 7.873 7.29 11.506 10.93l-6.057 5.77-6.666-6.073c-4.84 8.497-3.632 19.74-1.816 29.148.912 3.344 4.85 2.128 7.273 2.432.61 0 1.513-.608 2.12 0 1.817 7.897 6.97 15.794 15.747 17.306l11.21.912 7.873 6.08c-.304 2.73-3.64 5.77-1.512 9.114 3.633 3.64 12.114-.305 12.418 6.072-2.12 8.193-7.273 15.186-6.665 24.3.305 1.823 1.817 3.343 3.33 4.248 7.88-1.824 3.335 8.497 5.456 12.146 1.816 1.824 2.424 3.945 4.24 5.17l1.817-1.52 17.866-33.102-6.362-7.28-55.12-57.097c.912-2.128 3.633-4.257 6.057-5.77l59.36 61.04h.912c2.728-5.472 6.057-10.32 8.177-16.097l-3.336-.304c.312-1.816-.304-4.25-2.72-3.64-3.328 1.207-6.36-.61-9.09-2.737-.6.607-2.12 3.04-3.023 1.215-.912-2.432 0-5.777-.304-8.505-8.184-2.736-7.568-13.058-15.145-17.01-2.72-1.52-6.057-2.728-7.873-5.77.304-6.376 5.45-11.545 8.785-17 2.12-.61 4.85-1.217 6.97-.305l31.49 35.533h6.37c5.145 4.25 10.29 8.2 16.042 11.234 4.544 17.914 22.714 30.972 37.556 40.998 4.25.608 10.305-1.216 12.418 3.04l-.304 14.266c-5.76 3.648-13.33.608-19.683 1.824-42.702 26.42-107.823 30.068-152.95 6.985-56.03-25.812-95.708-83.21-97.22-145.156-2.728-64.69 33.62-124.514 90.556-153.662 8.785-4.857 18.475-8.2 28.172-11.546.902.28 1.814.585 1.814 1.497z" fill="#EC403B"/><path fill="#FFF" d="M279.54 378.207l-6.362-6.377 2.424-2.136 8.177 4.248M339.203 396.722c-14.234-1.208-28.772-2.728-43.302-4.25-1.815-.91-4.248-1.215-5.456-2.735 3.336 3.04 8.785 2.128 13.33 2.736l.296-.608.92-11.842 34.83 2.736-.617 13.962z"/><path d="M287.004 373.414l-4.545 5.777c5.144 6.682 12.113 13.667 21.202 11.843l.904-12.146 37.86 3.032-.903 16.697c-14.842-1.52-29.684-2.12-44.214-4.25l-6.37-2.43c-6.057-6.074-12.722-13.06-19.083-19.436l4.553-4.552c3.017 3.042 6.953 3.954 10.594 5.466z" fill="#231F20"/><path d="M249.743 98.89c3.336 2.43 4.85 6.072 4.545 10.32 0 5.465-1.824 10.32-2.728 15.49 2.728 1.824.608 4.857.304 7.593-1.512 3.945-2.424 8.2.6 11.538 12.426 17.307 37.26 21.564 42.71 43.735 6.97 20.347-1.208 40.39-9.993 57.4 18.78 14.882 33.622 34.917 48.464 53.75-2.424 2.73-5.753 4.858-8.48 7.594 3.936 6.984 6.056 14.88 8.48 22.778 16.658 5.16 24.835 23.075 35.133 35.837l12.714 15.786c-6.056 7.29-13.633 13.363-21.498 18.524l-.304-15.482c-3.032-1.52-7.273-.608-10.905-1.216-15.754-10.32-33.925-22.467-38.765-41.294-7.873-2.736-12.714-13.37-22.115-11.242L255.5 294.17c-6.058-2.43-7.57 5.466-10.29 8.498-1.216 2.736-3.937 5.465-2.12 8.497 5.753 3.04 11.21 6.985 14.538 13.058 1.208 2.432 2.424 6.073 5.76 6.985 4.242.304 1.21 6.073 1.817 8.8l.304.305 1.823-3.344c.608 2.43 3.328 4.864 6.057 5.168 2.424 0 6.057-1.216 7.273 1.824-.912 3.344 3.032 1.216 4.24 2.432-2.72 6.985-6.968 13.362-10.296 20.043l-52.095-53.447c-2.424-2.736-5.753-6.073-8.785-8.81-1.512.913-2.72 2.425-4.24 3.65l62.088 64.072-18.78 35.23c-.903.91-2.12 2.43-3.632 1.52-5.145-4.25-5.76-10.322-5.76-16.7-2.72-.303-5.442-1.215-6.962-3.64-3.335-10.32 4.242-18.218 5.754-27.332-1.816-3.64-7.273-1.52-10.297-3.344-2.72-1.216-3.328-4.553-2.424-6.985l1.512-3.944-7.265-5.16c-9.385-.297-19.387-2.13-24.54-11.243l-2.423-6.68c-3.632-.61-9.385.91-9.993-4.554-.904-7.29-1.816-14.275-.608-21.86.608-3.344 2.424-6.377 3.032-10.025 2.728 1.824 4.545 5.17 7.273 7.29 1.817-.913 3.33-2.12 4.242-3.946l-9.09-9.418c-1.815 1.216-3.023 2.736-4.544 4.257-1.216 0-2.12-1.52-3.032-2.433l4.85-5.16c-1.513-1.52-3.033-3.337-4.85-4.554l-4.545 4.553c-1.207-.296-2.12-1.816-3.023-2.736l4.24-4.553c-.903-1.824-3.023-3.945-4.544-4.553l-4.24 3.953c-.913 0-1.513-1.52-2.73-2.128.305-1.825 2.73-3.345 4.242-4.858-4.85-5.16-10.297-10.633-15.146-15.794l-.6.608 1.51 8.2 6.362 6.986c-5.145 7.897-13.33 1.208-19.683.304-3.633 0-6.97-.912-9.698-3.344-3.328-4.857-6.36-10.025-10.906-13.666-2.424-2.424-1.208-6.377 0-9.105-1.208-1.815-3.024-4.248-2.12-6.68l2.12-2.728c-1.816-2.424-2.728-5.77-1.208-8.505l2.424-3.032c-.912-7.29-2.12-14.578-3.024-21.867.304-2.424 3.032-2.12 4.84-3.04-3.63-9.113-6.96-23.683.305-32.492 9.393-12.146 25.14-11.842 36.35-21.26 10.6-10.32 23.322-16.393 38.156-15.793.91-3.336-.913-6.377-.6-10.32 0-6.986 3.023-13.363 9.392-16.403 6.36-4.553 15.746-3.64 23.62-3.04l14.21 6.96z" fill="#0F0708"/><path d="M180.997 192.726c1.816 7.593 5.753 14.586 9.08 21.867-1.51 0-3.327 0-3.936 1.52-.303 6.073 3.033 10.625 5.154 15.794-1.216 0-3.024 1.52-3.024 3.04.304 6.68 2.424 12.45 4.545 18.227-.912 1.512-3.328 1.512-4.85 2.424 2.12 6.073 3.033 12.146 3.337 18.827l-22.107-23.083c-4.545-5.77.912-14.578-3.937-20.347 1.816-3.945.304-9.105-.904-13.058 1.208-6.68 1.208-14.882 2.728-21.867 0-2.12-1.216-4.857-3.632-5.77 1.816-1.52 2.728-3.343 3.328-5.464 4.24.304 8.177-.608 12.114-1.824 1.497 2.73.585 6.68 2.105 9.714z" fill="#EC403B"/><path d="M355.293 414.892c-1.512 2.424-2.408 5.465-4.24 7.593.615-3.04.91-6.985 3.03-8.81l1.21 1.217zM67.23 178.932c.904 1.824-.144 4.313-1.216 5.17-1.512 1.52-3.632 1.52-5.753.607-2.727-1.217-2.415-4.554-1.51-6.682.91-.912 1.815-1.824 3.335-2.128 2.12-.01 4.233.91 5.145 3.032zM156.554 451.033l-.904 2.432c-8.48-3.648-16.962-8.81-24.53-14.578l1.51-1.824c7.874 4.857 15.747 9.72 23.924 13.97zM454.643 178.932c.904 1.824-.144 4.313-1.216 5.17-1.512 1.52-3.632 1.52-5.76.607-2.72-1.217-2.417-4.554-1.513-6.682.912-.912 1.816-1.824 3.328-2.128 2.136-.01 4.25.91 5.16 3.032zM43.955 203.223c-1.512 8.2-3.64 16.402-4.545 25.21-.608.305-2.12.305-3.024 0 1.512-9.104 2.424-17.617 5.457-26.115l2.112.905zM84.184 162.097c1.656-2.752 1.008-3.376-1.488-5.05l-14.41-9.672c-2.464-1.648-3.096-1.432-4.865.784l-.63-.425 5.92-8.817.632.424c-1.416 2.544-1.24 3.216 1.12 4.8l6.457 4.338 6.448-9.617-6.457-4.33c-2.463-1.647-3.095-1.43-4.864.785l-.632-.424 5.92-8.817.633.424c-1.416 2.545-1.24 3.217 1.12 4.802l14.778 9.913c2.2 1.472 3.04 1.576 4.865-.784l.632.425-5.92 8.817-.633-.424c1.655-2.752 1.007-3.376-1.49-5.05l-6.488-4.352-6.45 9.617 6.858 4.6c2.192 1.473 3.04 1.585 4.865-.783l.632.424-5.92 8.825-.633-.433zM106.46 131.34c-2.76 3.217-8.01 3.85-14.7-1.895-6.928-5.953-6.632-11.29-4.088-14.242 2.536-2.952 7.77-4.057 14.698 1.896 6.68 5.744 6.85 11.025 4.09 14.24zm1.087.945c4.505-5.25 4.16-12.898-2.312-18.46-6.993-6.008-14.578-4.312-18.66.44-4.088 4.754-4.616 12.507 2.377 18.516 6.474 5.554 14.09 4.746 18.595-.495zM119.997 93.656c-3.536-2.464-7.73-2.984-11.21.176-1.408 1.288-2.512 3.368-2.592 5.665-.08 2.128.408 5.16 4.29 9.425 5.72 6.28 11.433 5.8 14.985 2.56 3.48-3.16 3.592-7.12 3.657-8.81l.992.073c.023.088.967 6-4.226 10.737-4.553 4.145-12.026 5.745-18.747-1.632-6.04-6.64-4.56-14.546.296-18.97 2.512-2.29 5.24-2.985 5.865-3.553.144-.128 1.072-.976.408-2.16l.592-.544 6.33 6.433-.64.6zM129.382 76.11l8.137-5.833.44.624c-1.745 1.497-2.33 2.065-2.897 5.922l-1.512 10.353 13.075 2.96c3.697.904 5.673 1.36 7.4.024l.45.615L145 97.56l-.448-.615c1.6-1.24 2.104-1.656 1.592-2.376-.72-1.01-6.105-2.233-7.96-2.585l-5.746-1.064-.32 1.265 4.37 6.097c1.63 2.28 2.375 2.536 4.896.928l.448.616-8.76 6.273-.44-.617c2.327-1.864 2.35-2.616.44-5.29L122.965 86.09c-1.816-2.536-2.664-2.28-4.897-.928l-.44-.616 8.824-6.313.448.625c-2.304 1.896-2.48 2.568-.76 4.977l4.785 6.68c2.28-11.64 2.552-13.17 1.76-14.273-.632-.88-1.264-.52-2.832.503l-.473-.633zM173.94 80.502l-18.21 9.69-.36-.673c2.088-1.29 2.688-2.025 1.24-4.746l-8.36-15.706c-1.49-2.792-2.41-2.576-4.626-1.624l-.36-.672 17.914-9.53 2.792 5.01-.84.448c-2.184-2.88-3.36-2.984-7.105-.984l-4.553 2.424c-.704.376-1.112.592-.472 1.792l4.177 7.857 5.193-2.76c3-1.6 2.888-2.625 1.92-5.338l.776-.416 4.37 8.21-.777.415c-1.913-2.615-2.68-2.84-5.498-1.383l-5.233 2.696 4.672 8.777c.776 1.448.792 1.488 5.817-1.192 4.216-2.24 5.336-4.2 4.92-8.56l.944-.505 1.656 6.77zM188.574 46.826c-1.216.656-2.336 1.264-3.232 6.185l-1.944 10.498 2.848 7.233c1.056 2.69 1.768 3.137 4.985 1.913l.28.712-10.88 4.29-.28-.705c3.456-1.448 3.224-2.344 2.104-5.177l-2.552-6.49-7.48-5.328c-5.834-4.16-6.41-4.065-8.066-3.584l-.28-.71 9.953-3.922.28.712c-1.61.72-2.48 1.104-2.065 2.152.16.408.728 1.008 1.232 1.368l8.52 6.21 1.76-10.426c.09-.504.16-1.056-.047-1.576-.456-1.152-1.832-.696-2.936-.264l-.28-.704 7.785-3.064.294.68zM208.673 66.956c3.128-.744 3.12-1.632 2.576-4.593l-3.145-17.066c-.536-2.912-1.136-3.216-3.96-2.936l-.137-.743 10.45-1.928.143.75c-2.815.76-3.167 1.36-2.655 4.154l1.408 7.65 11.386-2.097-1.41-7.65c-.535-2.92-1.135-3.215-3.96-2.935l-.136-.744 10.45-1.928.135.752c-2.817.768-3.17 1.36-2.65 4.16l3.225 17.5c.48 2.6.992 3.28 3.96 2.935l.137.752-10.45 1.927-.135-.744c3.128-.744 3.12-1.632 2.568-4.593l-1.416-7.69-11.387 2.105 1.496 8.12c.48 2.6.99 3.28 3.96 2.937l.136.752-10.44 1.928-.153-.776zM243.966 52.154l3.993-11.17 4.824 10.857-8.818.314zm19.05 8.858c-1.68-.056-2.23-.48-3.56-3.36l-10.33-22.403-.76.03-7.232 19.956c-.664 1.792-1.744 4.753-2.584 5.793-.656.783-1.304.887-1.912.95l.032.76 7.56-.27-.023-.76c-.8.03-2.592.095-2.656-1.585-.015-.44.08-1.008.25-1.536l1.583-4.746 10-.36 1.705 3.793c.248.552.792 1.856.816 2.496.056 1.48-1.208 1.568-2.616 1.616l.032.76 9.737-.353-.04-.785zM278.34 37.384c-2.6-.096-3.577.088-3.89 3.24l-1.872 18.867c-.16 1.593.52 1.705 3.68 2.017 5.706.568 8.154.648 10.842-4.36l.952.095-2.512 6.76-20.45-2.023.07-.76c2.45.08 3.36-.193 3.665-3.265l1.752-17.706c.312-3.153-.576-3.48-2.952-3.914l.072-.76 10.72 1.064-.078.744z" fill="#FFF"/><path d="M302.318 41.057c-2.576-.384-3.568-.312-4.225 2.792l-3.945 18.538c-.336 1.568.328 1.752 3.432 2.408 5.61 1.192 8.033 1.544 11.25-3.136l.936.2-3.24 6.44-20.106-4.28.16-.744c2.424.352 3.36.184 4-2.84l3.705-17.402c.656-3.096-.184-3.52-2.496-4.217l.16-.744 10.536 2.24-.168.744zM335.595 60.46c1.712.663 1.856 2.615 1.096 4.552-1.55 4-7.376 10.633-11.433 9.057-1.776-.69-2.328-2.45-1.496-4.586 1.713-4.4 7.85-10.57 11.835-9.025zm.552-.68c-5.2-2.025-12.81 1.943-14.938 7.432-1.21 3.096-.49 6 3.287 7.473 5.45 2.12 12.954-2.744 14.738-7.345.96-2.464 1.04-5.96-3.088-7.56zM344.772 64.036l3.168 1.52c2.368-2.64 6.945-7.785 11.29-5.705 2.48 1.185 2.256 3.073 1.904 3.802-.344.72-1.312 1.152-2.104.768-1.104-.528-.84-1.6-.656-2 .384-.792.728-.632.92-1.032.136-.288-.136-.6-.584-.816-2.824-1.352-6.92 4.553-8.113 6.25l3.72 1.783-.76 1.056-3.76-1.79-8.01 10.384c-3.072 3.953-7.785 8.85-11.818 6.92-1.073-.51-2.257-1.655-1.665-3.415.056-.113.712-1.48 1.984-.96.495.19 1.167 1.095.735 2-.296.615-.608.463-.792.863-.136.288-.032.696.376.888 2.207 1.057 5.208-2.927 6.176-4.24l10.297-13.738-3.104-1.48.792-1.056zM377.96 92.536c1.552-3.016 1.024-3.865-1.32-5.513l-4.53-3.192-4.952 7.25c-1.696 2.48-1.336 3.312.832 4.937l-.432.632-8.833-6.042.432-.632c2.456 1.488 3.176 1.248 5.025-1.464l9.793-14.322c1.784-2.616 1.168-3.328-.704-4.85l.433-.63 16.746 11.457-3.137 4.793-.792-.536c1.545-3.264 1.08-4.36-2.415-6.753l-4.29-2.935c-.783-.536-1.095-.56-1.775.432l-5.017 7.345 4.57 3.128c2.583 1.768 3.608 1.496 5.616-.768l.727.496-5.25 7.673-.727-.504zM385.233 96.832l10.45-5.625-3.682 11.29-6.767-5.665zm8.225 19.33c-1.208-1.167-1.336-1.855-.4-4.88l7.33-23.555-.585-.488-18.73 9.976c-1.69.888-4.474 2.368-5.794 2.568-1.017.144-1.57-.216-2.057-.576l-.488.584 5.793 4.857.488-.585c-.616-.512-1.992-1.672-.912-2.96.28-.336.728-.696 1.216-.968l4.36-2.464 7.674 6.433-1.272 3.953c-.184.575-.656 1.91-1.064 2.4-.952 1.135-1.944.36-3.024-.553l-.488.584 7.465 6.258.488-.585zM435.32 125.372c-1.736-1.68-2.52-2.208-4.905-.12l-13.378 11.73c-2.32 2.032-2.016 2.936-.52 4.88l-.568.505-7.058-8.04.568-.505c2.088 2.136 2.864 2.112 5.337-.056l13.53-11.858-.048-.056-23.548 7.737-.352-.4 10.177-21.58-.048-.056-12.027 10.545c-3.104 2.72-3.24 3.904-1.488 6.08l-.576.504-5.922-6.753.568-.503c2.064 2.048 3.048 2.256 6.305-.592l12.235-10.73c2.352-2.055 2.064-2.87.32-5.104l.576-.503 4.986 5.69-9.4 19.978 20.786-6.993 5.01 5.72-.562.48zM428 161.065l-11.347-17.226.632-.417c1.48 1.952 2.264 2.488 4.84.792l14.86-9.785c2.647-1.744 2.343-2.64 1.183-4.76l.64-.417 11.154 16.946-4.72 3.247-.53-.8c2.665-2.44 2.657-3.624.32-7.17l-2.83-4.304c-.44-.672-.697-1.048-1.833-.304l-7.426 4.896 3.232 4.913c1.872 2.84 2.88 2.63 5.49 1.415l.48.736-7.77 5.114-.48-.736c2.424-2.144 2.576-2.928.872-5.6l-3.168-4.962-8.297 5.465c-1.376.905-1.408.93 1.72 5.682 2.624 3.993 4.68 4.92 8.985 4.105l.584.896-6.593 2.272zM37.01 257.158l.696-12.186.776.048c-.056 3.81.88 3.985 3.913 4.16l20.46 1.17.127-2.257c.264-4.585-.448-5.76-4.857-6.937l.056-1 6.946.648-1.344 23.54-6.97-.145.057-1c4.552-.617 5.352-1.745 5.616-6.338l.128-2.256-20.907-1.192c-2.784-.16-3.592.296-3.913 3.8l-.784-.056zM38.586 290.883l-1.864-22.5.776-.063c.384 2.648.832 3.576 3.977 3.32l18.13-1.504c3.224-.264 3.392-1.288 3.376-3.93l.777-.063 1.84 22.123-5.833.608-.088-1.04c3.584-.928 4.145-2.064 3.76-6.69l-.463-5.624c-.072-.872-.112-1.376-1.504-1.256l-9.066.752.536 6.417c.312 3.713 1.32 4.04 4.265 4.265l.08.96-9.473.792-.08-.96c3.224-.776 3.745-1.448 3.496-4.905l-.448-6.425-10.13.84c-1.67.144-1.71.144-1.2 6.353.433 5.21 1.833 7.193 6.106 8.68l.096 1.17-7.066-1.32zM72.91 324.112c-.832-2.504-1.312-3.424-4.457-2.64l-17.666 4.377c-3.064.76-3.192 1.775-2.704 4.416l-.752.192-2.807-11.362.752-.184c.944 3.12 1.672 3.504 4.937 2.696l17.858-4.425-.016-.08-25.187-4.705-.136-.568 19.22-15.482-.024-.08-15.874 3.93c-4.097 1.015-4.76 2.08-4.145 5.072l-.752.184-2.36-9.537.76-.192c.96 3.04 1.768 3.737 6.065 2.68l16.154-4c3.104-.77 3.208-1.697 2.624-4.738l.76-.192 1.992 8.04-17.77 14.347 22.307 3.993 2 8.073-.777.184zM74.887 333.017c1.24-.536 1.464-.128 1.952 1.024.727 1.69 3.055 7.33-2.337 9.642-5.73 2.456-7.93-2.696-8.537-4.12-.344-.81-.64-1.593-.872-2.353l9.793-4.193zm-1.104-7.985c.936 2.92.664 3.536-2.008 4.68L55.46 336.7c-2.71 1.16-3.575 1.536-5.184-1.6l-.712.312 4.61 10.76.71-.303c-1.19-2.992-.903-3.89 1.85-5.065l6.856-2.936c.32.952.592 1.704.992 2.624 1.728 4.033 3.464 6.2 5.713 7.193.88.4 3.152 1.424 6.09.168 4.784-2.047 4.736-7.672 2.47-12.977l-4.344-10.145-.727.304z" fill="#FFF"/><path d="M87.497 353.972c-1.56-2.384-2.328-3.144-5.137-1.528L65.55 362.1c-1.424.817-1.08 1.49.648 4.498 3.128 5.44 4.6 7.68 10.44 7.065l.52.904-7.184 1.816-11.202-19.5.672-.383c1.472 2.24 2.272 2.888 5.01 1.312l15.777-9.065c2.81-1.608 2.52-2.6 1.385-4.993l.672-.392 5.873 10.217-.663.392z" fill="#FFF"/><path d="M84.136 395.962l-13.378-18.187.632-.464c1.72 2.057 2.584 2.617 5.13.745l14.657-10.777c2.608-1.92 2.208-2.872.816-5.113l.624-.464 13.154 17.883-4.648 3.577-.616-.84c2.568-2.664 2.448-3.93-.296-7.665l-3.344-4.545c-.52-.712-.816-1.112-1.936-.288l-7.33 5.393 3.818 5.185c2.208 3 3.248 2.752 5.865 1.4l.568.776-7.656 5.633-.568-.777c2.344-2.344 2.432-3.192.408-6.017l-3.753-5.233-8.184 6.025c-1.352.992-1.384 1.016 2.304 6.033 3.096 4.21 5.33 5.162 9.753 4.194l.696.944-6.714 2.584zM100.266 411.276c-1.832-1.768-.208-3.448.28-3.945 2.592-2.68 11.61-6.272 14.97-3.015 1.408 1.368.16 2.664-.496 3.336-3.544 3.65-11.905 6.394-14.754 3.626zm11.114 6.552c-2.632.192-3.89.288-4.49-.296-.303-.288-.343-.728.09-1.168.455-.472 16.233-9.49 22.49-13.362l-.008-.288c-1.848-1.16-3.576-2.44-5.25-3.777l-.487.504c1.624 1.625 1.688 1.985 1.032 2.657-.4.408-1.32.944-2.36 1.536l-5.825 3.432h-.12c.504-.76 1.24-1.936-.44-3.568-3.576-3.464-13.898-3.016-18.202 1.424-1.48 1.53-2.736 4.082-.24 6.498 1.496 1.456 3.665 2.584 8.97 1.44v.112c-1.24.8-2.017 1.36-2.673 2.032-.6.624-1.072 1.592.104 2.72.993.96 4.282 1.464 7.49.744l-.08-.638zM121.26 418.477c3.49-1.872 7.682-2.552 9.442-1.144.816.656.656 1.528.112 2.2-.208.256-3.448 3.96-11.242-.096l1.69-.96zm3.042 9.96c-2.68 0-4.92-.007-6.68-1.423-1.37-1.096-2.473-3.192-.73-5.37.513-.64 1.193-1.143 1.897-1.687l1.015.6c5.873 3.504 11.018 3.384 13.042.856 1.128-1.408.736-2.984-.928-4.32-4.594-3.69-14.06-2.457-17.73 2.11-1.617 2.01-2.577 5.346.847 8.09 3.264 2.624 8.585 2.064 9.353 1.84l-.088-.695zM185.574 440.168c.392-1.12.84-1.272 2.936-.536 1.616.568 6.753 2.488 4.953 7.633-1.928 5.53-7.88 3.544-11.21 2.424l3.32-9.522zm10.265 28.323c-1.593-.64-2.297-1.663-2.8-3.015l-4.714-12.626c2.144.31 7.6 1.175 9.41-4.01 2.08-5.96-4.154-9.04-7.666-10.273l-10.897-3.8-.256.735c2.672 1.232 3.136 1.792 2.136 4.65l-5.85 16.76c-1.007 2.905-1.455 3.658-4.72 2.737l-.256.735 10.93 3.817.256-.736c-3.104-1.256-3.24-2.128-2.336-4.72l2.656-7.626 2.24.696 5.24 15.194 6.354 2.216.272-.735zM219.747 474.42l-22.083-4.705.16-.76c2.648.4 3.673.24 4.33-2.848l3.8-17.794c.672-3.168-.256-3.617-2.784-4.37l.16-.76 21.715 4.634-1.096 5.76-1.025-.215c.144-3.697-.776-4.57-5.32-5.537l-5.522-1.176c-.856-.185-1.352-.29-1.64 1.07l-1.896 8.898 6.297 1.344c3.64.776 4.257-.096 5.313-2.848l.944.2-1.983 9.297-.944-.2c.192-3.31-.304-4-3.688-4.768l-6.28-1.424-2.12 9.937c-.353 1.64-.36 1.68 5.736 2.984 5.114 1.087 7.41.32 10.074-3.345l1.144.248-3.29 6.377zM256.72 451.4c-2.648.097-3.993.16-4.337 4.946l-1.56 21.5-.704-.05-16.723-23.73-.08-.008-1.152 15.946c-.304 4.21.504 5.177 3.544 5.513l-.057.776-9.8-.712.055-.775c3.184.024 4.105-.52 4.425-4.937l1.304-18.026c-1.56-2.168-2.216-2.416-3.88-2.544l.055-.776 7.13.52 14.545 20.82.08.007.992-13.66c.343-4.704-.8-5.112-3.625-5.52l.056-.776 9.802.712-.072.775z" fill="#FFF"/><path d="M269.297 476.004c-4.633.248-9.09-3.16-9.577-12.162-.504-9.33 3.953-12.898 8.21-13.122 4.256-.232 9.072 2.832 9.576 12.162.48 9.002-3.576 12.874-8.21 13.122zm.072 1.473c7.56-.408 13.36-6.097 12.89-14.818-.505-9.41-7.57-13.795-14.42-13.42-6.848.377-13.393 5.49-12.88 14.9.472 8.712 6.856 13.745 14.41 13.337z" fill="#FFF"/><path d="M314.608 443.232c-2.536.736-3.472 1.176-2.816 4.345l3.68 17.818c.64 3.088 1.657 3.256 4.306 2.88l.16.76-11.466 2.368-.152-.76c3.16-.824 3.568-1.528 2.888-4.825l-3.72-18.026-.08.024-5.682 24.98-.576.12-14.722-19.812-.08.016 3.304 16.018c.856 4.137 1.896 4.84 4.913 4.345l.16.76-9.625 1.984-.16-.76c3.072-.84 3.8-1.624 2.912-5.953l-3.36-16.298c-.648-3.128-1.576-3.272-4.64-2.808l-.153-.76 8.104-1.672 13.642 18.315 4.865-22.138 8.146-1.68.152.76zM348.388 429.55c-2.36 1.184-3.192 1.792-1.968 4.793l6.897 16.834c1.2 2.92 2.232 2.896 4.77 2.032l.295.72-10.833 4.44-.297-.72c2.952-1.384 3.224-2.16 1.952-5.273l-6.977-17.026-.08.033-.992 25.604-.536.224-18.115-16.76-.08.03 6.2 15.13c1.6 3.906 2.753 4.41 5.626 3.37l.297.72-9.09 3.727-.295-.72c2.864-1.392 3.44-2.296 1.76-6.393l-6.305-15.394c-1.216-2.96-2.152-2.928-5.073-1.904l-.296-.72 7.665-3.136 16.778 15.49.705-22.66 7.697-3.15.296.71zM382.09 439.52l-19.292 11.73-.4-.665c2.2-1.528 2.832-2.344 1.192-5.04l-9.45-15.547c-1.68-2.768-2.663-2.456-5.024-1.256l-.408-.664 18.97-11.53 3.153 4.945-.895.536c-2.432-2.793-3.697-2.785-7.665-.377l-4.825 2.936c-.752.455-1.176.72-.456 1.91l4.728 7.778 5.505-3.344c3.176-1.936 3.024-2.992 1.904-5.713l.824-.495 4.938 8.12-.816.497c-2.136-2.536-2.968-2.704-5.953-.936l-5.546 3.272 5.28 8.68c.873 1.44.897 1.473 6.218-1.76 4.465-2.71 5.617-4.848 5.033-9.344l1-.608 1.984 6.873zM403.316 423.26l-17.73 13.97-.48-.607c2-1.784 2.528-2.664.576-5.145l-11.266-14.29c-2-2.544-2.944-2.112-5.137-.648l-.48-.616 17.433-13.738 3.73 4.53-.825.647c-2.752-2.48-4.01-2.32-7.657.552l-4.432 3.488c-.688.544-1.088.856-.224 1.952l5.633 7.145 5.057-3.985c2.92-2.304 2.64-3.328 1.2-5.905l.752-.592 5.89 7.473-.753.593c-2.424-2.264-3.272-2.328-6.025-.208l-5.105 3.92 6.29 7.986c1.04 1.32 1.063 1.353 5.96-2.503 4.105-3.232 4.985-5.497 3.865-9.88l.92-.73 2.808 6.594zM418.094 406.683c-1.712 1.888-3.44.312-3.96-.152-2.76-2.51-6.634-11.41-3.49-14.865 1.32-1.456 2.657-.24 3.353.392 3.77 3.416 6.777 11.69 4.097 14.626zm6.2-11.322c.273 2.625.41 3.882-.15 4.498-.28.312-.72.368-1.177-.048-.488-.44-9.993-15.93-14.066-22.06l-.295.017c-1.096 1.88-2.32 3.648-3.61 5.37l.52.47c1.577-1.67 1.92-1.75 2.625-1.12.424.385.992 1.297 1.608 2.313l3.61 5.713.007.12c-.776-.48-1.976-1.176-3.552.552-3.344 3.68-2.576 13.986 2 18.146 1.576 1.433 4.17 2.6 6.505.04 1.408-1.543 2.464-3.744 1.16-9.008l.12-.008c.84 1.216 1.424 1.968 2.12 2.608.632.584 1.624 1.016 2.72-.184.928-1.016 1.328-4.32.504-7.505l-.647.088zM436.968 378.83c1.408 4.346 1.616 5.85.36 7.522-1.12 1.504-2.392.664-2.88.296-.592-.44-2.848-3.176-4.96-5.953l-.073.096c2.008 5.05 4.257 10.602 2 13.61-.904 1.21-1.872 1.473-3.312.393-1.44-1.08-7.81-9.81-8.697-10.473-.952-.712-1.424-.08-2.448 1.296l-.464-.344c1.056-1.816 2.016-3.713 2.872-5.68l.144-.05 9.633 11.955c.352.416 1.112.832 1.64.128 1.08-1.44-.432-5.857-1.288-8.265-1.2-3.456-2.72-5.737-5.257-9.673l1.856-2.48 7.833 9.985c.504.696 1.624 2.208 2.12 2.576.16.128.552.36.824-.008.48-.64.033-2.432-.535-4.69l.633-.24zM449.074 366.83c1.384-3.233.648-3.778-2.12-5.114l-15.97-7.737c-2.728-1.32-3.352-.977-4.92 1.703l-.705-.336 5.064-10.465.704.344c-1.16 2.968-.904 3.648 1.72 4.92l7.16 3.465 5.522-11.4-7.153-3.465c-2.728-1.32-3.352-.976-4.92 1.704l-.705-.337 5.065-10.457.704.336c-1.16 2.968-.903 3.648 1.72 4.92l16.38 7.93c2.43 1.184 3.31 1.144 4.92-1.704l.704.344-5.065 10.457-.705-.337c1.384-3.232.648-3.777-2.12-5.113l-7.193-3.48-5.52 11.402 7.6 3.68c2.432 1.177 3.32 1.145 4.92-1.703l.705.343-5.065 10.457-.728-.36z" fill="#FFF"/><path d="M466.012 326.904c-1.416 4.417-6.2 7.36-14.778 4.6-8.897-2.855-10.633-8.288-9.33-12.353 1.305-4.064 5.89-7.456 14.78-4.6 8.584 2.76 10.753 7.937 9.328 12.354zm1.41.448c2.32-7.2-.93-14.658-9.234-17.33-8.97-2.888-15.586 2.144-17.682 8.673-2.096 6.53.344 14.466 9.313 17.354 8.303 2.672 15.28-1.49 17.6-8.698zM457.74 282.626c-4.418.352-8.13 2.8-8.946 7.88-.328 2.065.096 4.594 1.472 6.586 1.28 1.856 3.576 4.09 9.4 5.025 8.578 1.376 12.89-2.968 13.723-8.17.815-5.072-1.585-8.504-2.593-9.984l.848-.624c.08.055 4.57 4.416 3.344 12.017-1.065 6.64-6.098 13.162-16.17 11.546-9.066-1.456-12.85-9.177-11.707-16.274.592-3.673 2.352-6.146 2.504-7.05.032-.208.248-1.568-1.032-2.112l.144-.864 9.16 1.088-.15.934zM449.762 264.127l.192-10.954.784.016c.16 2.51.264 3.39 3.088 6.408l7.57 8.073 10.408-9.56c3-2.664 4.585-4.105 4.537-6.48l.777.015-.216 12.746-.775-.015c-.048-2.216-.08-2.928-.976-2.944-1.273-.023-5.562 3.914-6.978 5.314l-4.385 4.36.84 1.097 7.665.13c2.864.047 3.528-.44 3.753-3.698l.776.016-.2 11.794-.775-.016c-.104-3.264-.712-3.777-4.073-3.833l-17.746-.304c-3.192-.057-3.496.855-3.753 3.696l-.776-.016.208-11.874.776.016c.153 3.264.593 3.857 3.626 3.913l8.4.144c-8.152-9.586-9.24-10.818-10.632-10.842-1.104-.016-1.2.776-1.32 2.824l-.792-.025zM473.91 226.306l2.848 22.395-.776.097c-.496-2.632-.984-3.536-4.12-3.144l-18.05 2.296c-3.21.407-3.33 1.43-3.2 4.072l-.777.096-2.8-22.02 5.8-.863.13 1.032c-3.537 1.08-4.05 2.248-3.466 6.85l.71 5.6c.113.872.177 1.368 1.553 1.192l9.025-1.145-.808-6.385c-.472-3.69-1.496-3.985-4.44-4.073l-.12-.952 9.432-1.2.12.952c-3.184.912-3.673 1.608-3.28 5.057l.728 6.4 10.08-1.28c1.665-.207 1.713-.215.92-6.392-.655-5.185-2.143-7.105-6.48-8.4l-.144-1.16 7.114.974zM440.24 200.863c.56 1.408 1.08 2.696 6.034 4.33l10.57 3.51 7.664-2.103c2.848-.784 3.376-1.488 2.416-5.13l.752-.207 3.392 12.338-.752.21c-1.16-3.93-2.104-3.802-5.113-2.977l-6.873 1.888-6.137 7.37c-4.8 5.745-4.753 6.377-4.41 8.233l-.75.208-3.097-11.29.752-.207c.592 1.832.904 2.832 2.016 2.528.432-.12 1.096-.647 1.512-1.15l7.137-8.378-10.513-3.312c-.52-.16-1.064-.312-1.616-.16-1.224.336-.88 1.888-.536 3.144l-.752.208-2.424-8.833.73-.217zM62.3 213.496c.185-1.448.13-2-1.503-2.304l-9.777-1.784c-.824-.152-.92.224-1.232 1.976-.576 3.168-.744 4.53 1.752 6.225l-.096.527-3.416-1.672L50.1 205.12l.392.07c-.16 1.37-.064 1.89 1.528 2.177l9.185 1.672c1.632.295 1.848-.185 2.192-1.497l.392.072-1.09 5.953-.4-.072zM45.7 229.187l2.08-11.394.39.072c-.16 1.368-.063 1.88 1.53 2.176l9.176 1.673c1.632.296 1.848-.184 2.2-1.496l.392.072-2.04 11.2-2.968-.47.096-.53c1.896.025 2.328-.47 2.76-2.807l.52-2.848c.08-.44.128-.696-.576-.824l-4.593-.84-.592 3.25c-.344 1.88.112 2.175 1.544 2.68l-.09.487-4.8-.872.088-.488c1.704.048 2.048-.216 2.392-1.96l.632-3.24-5.13-.936c-.847-.15-.863-.16-1.44 2.985-.48 2.632-.055 3.81 1.865 5.113l-.104.592-3.334-1.593zM149.065 424.317c-1.304-.664-1.84-.808-2.68.624l-5.017 8.586c-.424.728-.096.936 1.432 1.84 2.776 1.624 4 2.24 6.45.48l.463.272-2.736 2.64-9.96-5.825.2-.344c1.223.623 1.743.703 2.567-.69l4.713-8.056c.84-1.432.456-1.8-.656-2.576l.2-.344 5.218 3.048-.193.345zM154.642 436.983l5.05-3.745-.77 6.24-4.28-2.495zm6.545 9.625c-.784-.528-.928-.88-.744-2.552l1.424-13.002-.368-.216-9.058 6.657c-.816.592-2.168 1.584-2.856 1.784-.536.15-.872 0-1.176-.153l-.2.344 3.665 2.145.2-.344c-.384-.223-1.256-.735-.816-1.495.12-.2.32-.424.55-.6l2.097-1.624 4.85 2.833-.265 2.184c-.04.32-.144 1.056-.312 1.352-.392.67-1.016.327-1.696-.065l-.2.344 4.72 2.76.183-.352zM203.408 129.253c-10.297 1.52-19.987 4.553-28.772 9.72h-2.72c8.785-7.896 19.083-12.45 31.196-12.145l.296 2.425zM245.806 115.595c-.304 8.2 2.424 18.22-4.545 23.987-1.815-.608-.903-3.336-1.51-5.16-.305-3.033 4.24-4.554 3.03-7.594-.91-1.824-4.24-.608-3.632-3.032 1.216-.912 3.328-1.52 3.633-3.336 0-1.824-.91-4.865.6-5.777.61.304 1.826 0 2.426.912zM230.364 140.798c-.904.304-1.816 2.128-3.032 1.216.304-2.728-2.12-6.377.304-9.113 1.52 2.13 3.936 5.162 2.728 7.898zM254.59 155.072c0 .608-.903 1.216-.607 2.128.608.904 2.12 0 3.032-.304 1.512 1.208 4.24 2.424 4.24 4.553-1.51 1.52-3.335 2.735-5.448 1.823l-12.114-3.953v-1.216l5.45-7.28c1.816.904 3.632 2.728 5.448 4.248zM161.915 159.625c3.937 5.77-3.937 9.417-1.816 15.186-4.546-5.464-10.298-9.416-15.443-13.665v-.608c5.145-2.736 8.48 7.897 12.114 1.52.61-2.128-1.207-3.953.305-5.77 2.415.002 3.928 1.514 4.84 3.338zM276.698 170.86c0 1.215-1.216 1.52-2.12 1.52-4.24-2.433-8.48-5.162-12.722-7.29l2.72-2.12c4.25 2.12 8.49 4.552 12.122 7.89zM158.282 178.756l-1.216 5.465c-3.328-3.343-5.45-7.288-8.177-10.93 3.03 2.13 6.056 4.25 9.392 5.466zM282.46 175.723c0 .608 0 1.52-.913 1.824-.592-.608-1.208-.304-1.208-1.52-.313-1.216 1.815-1.52 2.12-.304zM159.186 195.766c0 5.77-.304 12.146-1.816 17.61-.608.608-1.512.304-2.12-.296-1.208-5.465-.608-11.242-1.824-17.01-.6-1.216-2.12-1.824-3.632-2.12 2.727-.312 8.184-1.824 9.392 1.816zM253.983 210.04c-1.208 4.857-3.633 10.017-2.416 15.186 1.512 2.728 4.84 1.52 6.96.912l8.786-3.04c-4.85 4.553-10.6 7.593-17.57 7.593-2.416 5.162-5.145 13.06-11.81 14.275l-2.424 4.857c-.913-1.512-1.21-3.945-.305-5.465 1.816-2.736 4.85-3.032 6.665-4.857 2.12-10.625 7.273-20.347 11.81-30.068l.303.608zM131.63 217.017c0 .608-.607 1.216-1.51.912-.61 0-.61-.305-.913-.913 0-.608.304-.904.912-1.216.598.01 1.51.313 1.51 1.217zM159.186 220.36v9.418c-.608.912-1.816 1.512-2.72.608l-3.632-10.93c0-1.52 1.512-1.823 2.424-2.127 1.808-.313 4.232.903 3.928 3.03zM134.655 226.13c-.304 1.824-2.424.608-3.937.912-.304 0-.304-.304-.6-.304.6-1.512 3.625-1.216 4.537-.608zM139.2 235.243l-9.08.304c-.61-.304-.61-1.824.607-1.824l8.48.304v1.216h-.007zM158.882 236.156c.304.904-.304 1.512-.912 1.512-.6 0-.912-.304-1.208-.912-.296-1.21 1.816-1.817 2.12-.6zM140.416 242.532c-2.12 2.128-3.937 3.953-6.665 4.857-.903-.61-2.727-1.52-3.03-3.04 0-.913 0-2.12 1.215-2.433 3.024.007 6.056-.297 8.48.615zM318.192 289.603c0 .6-1.2.912-1.816.304-12.122-11.842-24.53-24.3-38.46-34.317l3.03-4.25c13.627 10.02 28.47 23.99 37.246 38.263zM239.15 261.967c-.305.608-.305 1.216-.905 1.52-.608.304-1.216-.608-1.216-1.216-.305-1.215 1.815-1.52 2.12-.303zM219.46 282.922l7.872 3.945c-6.36 6.993-13.018 13.066-21.195 17.01-1.216.608-3.336.608-4.545-.304-1.816-1.216-1.512-3.64-.912-5.465l1.824-3.648 28.468-32.188c-3.336 6.68-8.785 13.36-11.513 20.65zM257.016 275.33c0 1.207-.904 1.823-2.12 1.51-4.24-3.04-7.57-7.888-11.81-11.537l.296-.608c5.153 2.433 9.697 6.385 13.634 10.634zM256.104 332.113c.608 2.128-.304 4.857-2.728 5.17-5.457-.313-3.328-7.594-6.057-10.94-.61-3.04-6.058-4.856-4.242-8.2 5.457 2.736 12.418 6.993 13.026 13.97zM348.476 347.3c0 .607-1.2 1.52-1.816.91-3.032-4.248-7.273-8.2-11.506-10.328-.912-.912 0-1.816.304-2.128 5.76 1.223 10.298 7.296 13.018 11.545zM274.586 350.643c-.304.608-.608 1.216-1.216 1.216-1.816-.913-4.85-1.217-5.45-3.345 1.818-1.824 4.842.92 6.666 2.128zM352.717 351.547c0 .92-.592.608-1.208.92-.905 0-.905-1.216-.305-1.824.616 0 1.816 0 1.512.904zM244.598 375.543c-.304.608-1.216 1.216-1.816.608-.608-.303-.912-1.215-.304-1.815.904-.92 2.424-.008 2.12 1.208zM245.502 384.656c.904 0 1.816 0 2.12.904-.296 2.128-2.728 1.52-4.24 1.824-1.21-.304-2.113-.6-3.025-1.824-.304-2.424.304-4.553 1.512-6.073 2.728.616-.304 5.465 3.632 5.17z" fill="#FFF"/></svg>