<svg xmlns="http://www.w3.org/2000/svg" xmlns:xlink="http://www.w3.org/1999/xlink" viewBox="0 0 512 512"><title>100 Greatest Players Badge</title><circle cx="256" cy="256" r="256"/><path d="M256 9.937c33.22 0 65.444 6.505 95.778 19.336 29.3 12.393 55.616 30.136 78.216 52.735 22.6 22.6 40.342 48.914 52.735 78.216 12.83 30.333 19.334 62.556 19.334 95.777s-6.505 65.445-19.336 95.78c-12.393 29.3-30.136 55.615-52.735 78.215-22.6 22.6-48.914 40.342-78.216 52.735-30.333 12.83-62.556 19.335-95.777 19.335s-65.444-6.505-95.778-19.336c-29.3-12.394-55.616-30.137-78.216-52.736S41.664 381.08 29.27 351.778C16.443 321.444 9.938 289.22 9.938 256s6.505-65.444 19.336-95.778c12.393-29.3 30.136-55.616 52.735-78.216s48.914-40.342 78.216-52.735C190.556 16.443 222.78 9.938 256 9.938M256 6C117.93 6 6 117.93 6 256s111.93 250 250 250 250-111.93 250-250S394.07 6 256 6z" fill="#FFF"/><path d="M256 90.5c44.34 0 86.026 17.267 117.38 48.62S422 212.16 422 256.5s-17.267 86.026-48.62 117.38S300.34 422.5 256 422.5s-86.027-17.267-117.38-48.62S90 300.84 90 256.5s17.267-86.026 48.62-117.38S211.66 90.5 256 90.5m0-8c-96.098 0-174 77.902-174 174s77.902 174 174 174 174-77.902 174-174-77.902-174-174-174z" fill="#FFF"/><g fill="#FFF"><path d="M35.714 230.035l-4.167-.68c.215-4.19-.247-7.44-1.385-9.757l.922-5.643 32.91 5.375 1.248-7.647 5.59.913-3.67 22.467-5.59-.913 1.25-7.647-25.843-4.22-1.266 7.752zM77.623 188.47c.336 2.197.053 4.647-.85 7.35-.9 2.705-2.145 4.825-3.728 6.36-1.584 1.538-3.46 2.49-5.63 2.854-2.167.366-4.4.39-6.7.073-2.296-.316-4.882-.955-7.754-1.914-2.87-.958-5.32-2.002-7.35-3.13-2.025-1.127-3.796-2.488-5.31-4.083-1.516-1.595-2.452-3.485-2.812-5.67-.36-2.186-.088-4.63.814-7.335.902-2.703 2.158-4.83 3.764-6.377 1.606-1.548 3.493-2.504 5.662-2.87 2.17-.364 4.403-.39 6.7-.072s4.884.955 7.756 1.913c2.872.958 5.322 2.002 7.35 3.13 2.027 1.127 3.798 2.488 5.312 4.083 1.514 1.595 2.44 3.49 2.777 5.687zm-11.395 9.914c2.59-.224 4.333-1.67 5.224-4.34.89-2.67.37-4.88-1.56-6.634-1.93-1.752-5.262-3.418-9.993-5-4.73-1.578-8.395-2.247-10.992-2.007-2.597.24-4.34 1.697-5.232 4.366-.61 1.824-.514 3.452.285 4.883.8 1.43 2.104 2.646 3.91 3.644 1.81.998 4.672 2.15 8.592 3.46 3.92 1.308 7.175 1.85 9.766 1.627zM91.732 159.006c-.045 2.222-.744 4.588-2.097 7.096-1.353 2.51-2.94 4.385-4.764 5.627-1.823 1.242-3.834 1.857-6.034 1.844-2.2-.012-4.404-.37-6.614-1.077-2.21-.706-4.647-1.777-7.312-3.215s-4.9-2.885-6.704-4.344c-1.803-1.458-3.314-3.102-4.534-4.934-1.218-1.83-1.817-3.853-1.797-6.068.02-2.214.707-4.576 2.06-7.085 1.353-2.507 2.954-4.387 4.8-5.637 1.85-1.25 3.872-1.87 6.07-1.857 2.2.013 4.405.372 6.615 1.077 2.21.706 4.648 1.778 7.312 3.215 2.666 1.438 4.9 2.886 6.704 4.344 1.804 1.458 3.315 3.103 4.534 4.934 1.22 1.833 1.806 3.86 1.762 6.08zm-12.926 7.814c2.59.224 4.554-.903 5.89-3.38 1.336-2.477 1.204-4.744-.398-6.802-1.602-2.057-4.598-4.27-8.988-6.638-4.39-2.367-7.885-3.654-10.484-3.863-2.6-.207-4.568.927-5.903 3.404-.913 1.694-1.1 3.315-.557 4.86.542 1.548 1.618 2.968 3.23 4.26 1.608 1.294 4.232 2.92 7.87 4.883 3.635 1.96 6.75 3.054 9.34 3.277zM113.21 123.155c3.488-3.762 3.218-7.558-.81-11.39l-1.332-1.234-4.068 4.39-3.41-3.16 8.32-8.975 14.618 13.55-2.47 2.666-3.697-1.75c.724 3.78-.32 7.185-3.128 10.214-3.973 4.285-8.042 6.002-12.208 5.15-2.134-.422-4.22-1.263-6.26-2.522-2.04-1.258-4.292-3.033-6.76-5.322-2.47-2.288-4.41-4.414-5.82-6.378-1.41-1.963-2.368-3.98-2.876-6.054-1.038-4.12.514-8.415 4.655-12.882 2.98-3.213 5.84-4.86 8.586-4.938 2.744-.08 5.66 1.02 8.745 3.3l-3.33 4.927c-1.713-1.296-3.362-1.926-4.95-1.892-1.586.035-3.167.902-4.74 2.6-2.278 2.456-3.006 4.866-2.185 7.23.82 2.363 3.1 5.277 6.834 8.74 3.737 3.464 6.834 5.546 9.293 6.247 2.458.7 4.79-.138 6.993-2.515zM107.63 81.17l10.84-8.257c3.94-3 7.463-4.05 10.568-3.146 2.664.793 4.914 2.394 6.748 4.802 3.26 4.28 3.747 8.387 1.46 12.322 1.14.206 2.328.646 3.56 1.32l12.78 6.99-6.165 4.696-12.094-6.708c-1.045-.548-1.92-.8-2.624-.755-.705.044-1.525.422-2.46 1.135l-2.55 1.943 9.356 12.285-5.78 4.404L107.63 81.17zm16.66 9.88l4.38-3.336c1.7-1.295 2.61-2.73 2.735-4.3.124-1.573-.348-3.06-1.417-4.463s-2.377-2.252-3.925-2.55c-1.548-.3-3.173.2-4.874 1.494l-4.38 3.335 7.48 9.82zM138.933 58.88l19.375-10.456 2.665 4.938-12.98 7.006 5.128 9.5 11.804-6.372 2.64 4.89-11.803 6.372 5.433 10.063 13.92-7.512 2.664 4.938-20.315 10.964-18.53-34.33zM178.286 40.39l8.957-3.038 23.865 33.098-6.63 2.25-6.603-9.16-12.146 4.12.38 11.27-6.68 2.265-1.144-40.805zm6.667 5.018l.576 16.507 9.007-3.055-9.584-13.452zM201.02 38.75L200 33.343l27.252-5.145 1.02 5.41-10.027 1.893 6.215 32.924-7.142 1.348-6.215-32.924-10.082 1.903zM236.16 27.454l21.994-.97.246 5.605-14.733.648.476 10.785 13.4-.59.243 5.55-13.4.592.504 11.424 15.802-.698.247 5.605-23.063 1.017-1.718-38.97zM290.38 50.036c1.374 1.87 1.876 4.504 1.508 7.904-.37 3.4-1.834 5.99-4.393 7.773-2.56 1.784-6.105 2.428-10.638 1.936-4.534-.494-7.705-1.814-9.514-3.964-1.81-2.15-2.745-5.09-2.805-8.824l5.89-.274c-.015 2.113.525 3.812 1.623 5.095 1.098 1.284 2.743 2.045 4.94 2.283 4.71.512 7.26-1.02 7.648-4.598.165-1.522-.153-2.722-.954-3.597s-2.424-1.768-4.87-2.678l-2.946-1.072c-3.445-1.27-5.836-2.855-7.17-4.756-1.335-1.9-1.814-4.578-1.44-8.03.377-3.454 1.79-6.07 4.24-7.846s5.86-2.427 10.235-1.952c4.375.475 7.422 1.782 9.143 3.922 1.72 2.14 2.61 5.077 2.672 8.81l-5.836.28c.016-4.44-2.013-6.884-6.085-7.326-2.23-.242-3.93.066-5.1.924-1.168.86-1.84 2.085-2.012 3.68s.104 2.824.836 3.69c.73.87 2.213 1.73 4.45 2.58l3.25 1.268c3.513 1.312 5.956 2.903 7.33 4.772zM300.79 36.284l1.42-5.317 26.793 7.164-1.42 5.318-9.86-2.636-8.655 32.368-7.02-1.877 8.653-32.37-9.91-2.65zM353.576 76.594l-5.483-2.893-6.46 12.242-6.426-3.392 18.204-34.5 11.912 6.284c4.158 2.194 6.49 4.875 6.994 8.04.4 2.83-.222 5.805-1.868 8.924-1.63 3.088-3.717 5.25-6.262 6.484-2.915 1.404-6.452 1.007-10.61-1.188zm-2.864-7.855l4.49 2.37c3.717 1.96 6.66.886 8.83-3.226 2.17-4.11 1.396-7.15-2.32-9.11l-4.492-2.37-6.508 12.335zM361.2 97.144l22.867-31.604 5.888 4.26-19.578 27.06 10.78 7.8-3.29 4.545-16.668-12.06zM415.176 90.773l6.68 6.698-19.174 36.02-4.943-4.957 5.305-9.968-9.056-9.082-9.947 5.313-4.98-4.995 36.113-19.027zm-1.56 8.197l-14.56 7.8 6.715 6.737 7.845-14.537zM410.875 145.198l-4.346-5.825 10.877-8.117 13.196-24.848 4.347 5.825-9.93 17.876 19.964-4.43 4.347 5.825-27.576 5.575-10.88 8.118zM453.874 139.47l10.353 19.432-4.952 2.638-6.935-13.016-9.527 5.076 6.308 11.837-4.904 2.613-6.307-11.837-10.094 5.377 7.438 13.96-4.952 2.638-10.855-20.374 34.427-18.343zM468.8 169.293l4.436 12.884c1.612 4.682 1.502 8.356-.33 11.022-1.59 2.278-3.815 3.912-6.678 4.897-5.087 1.752-9.14.924-12.158-2.482-.554 1.02-1.344 2.007-2.37 2.964l-10.65 9.94-2.522-7.327 10.165-9.378c.848-.82 1.36-1.57 1.54-2.254.18-.683.078-1.58-.304-2.692l-1.046-3.032-14.602 5.028-2.366-6.872 36.883-12.7zm-14.612 12.718l1.792 5.205c.696 2.02 1.77 3.337 3.225 3.948 1.453.61 3.014.63 4.682.055 1.667-.574 2.885-1.55 3.654-2.926.772-1.376.808-3.075.11-5.096l-1.79-5.205-11.672 4.02zM463.52 232.013c-1.425 1.83-3.823 3.033-7.195 3.604-3.372.572-6.265-.13-8.677-2.105-2.413-1.976-4-5.212-4.763-9.708-.762-4.496-.356-7.907 1.22-10.233 1.573-2.326 4.148-4.027 7.725-5.103l1.87 5.59c-2.038.563-3.523 1.547-4.46 2.953-.937 1.405-1.22 3.196-.85 5.374.79 4.67 2.96 6.707 6.51 6.105 1.51-.257 2.576-.89 3.2-1.898.624-1.01 1.04-2.814 1.25-5.416l.23-3.128c.28-3.66 1.155-6.393 2.62-8.195 1.465-1.802 3.91-2.994 7.335-3.574s6.325.065 8.702 1.938 3.935 4.98 4.67 9.316c.734 4.338.308 7.626-1.28 9.865-1.592 2.238-4.174 3.895-7.75 4.97l-1.86-5.537c4.278-1.195 6.075-3.812 5.39-7.852-.375-2.212-1.135-3.763-2.278-4.653-1.147-.89-2.51-1.2-4.09-.933-1.58.268-2.688.87-3.324 1.81s-1.06 2.6-1.27 4.985l-.33 3.47c-.31 3.737-1.174 6.52-2.597 8.353z"/></g><g><defs><circle id="a" cx="256" cy="256.5" r="165.5"/></defs><clipPath id="b"><use xlink:href="#a" overflow="visible"/></clipPath><g clip-path="url(#b)"><path d="M403.162 255.705l-.193-.73c-1.376-5.32-5.748-9.7-13-13.016-2.776-11.32-8.5-21.524-16.58-29.545-11.928-11.846-28.248-18.37-45.954-18.37-17.468 0-33.815 6.578-46.027 18.52-3.074 3.005-5.84 6.316-8.245 9.87-2.36-3.622-5.097-6.985-8.157-10.022-11.93-11.845-28.252-18.37-45.962-18.37-17.463 0-33.807 6.58-46.02 18.522-4.062 3.972-7.535 8.412-10.372 13.252V190.337l-2.126.94-49.31 21.824-1.08.478.2 1.162c.75 4.392 1.114 8.82 1.114 13.542 0 5.004-.503 10.1-1.495 15.145l-.59 2.998 2.743-1.347 18.303-8.99v4.117c-1.207 1.06-2.15 2.38-2.812 3.926l-.013.035-.013.034-.16.427-.018.05-.015.054c-.018.065-.156.516-.386 1.266l-.91 2.976c-.894 2.926-2.2 7.26-3.523 11.648-1.232 4.093-2.48 8.232-3.42 11.315l-.102.337.056.347c.83 5.104 4.636 9.542 11.316 13.2v34.045h32.24v-25.02c1.284.187 2.593.363 3.913.524 1.99 2.654 4.162 5.137 6.466 7.386 12.218 11.93 28.56 18.498 46.013 18.498 10.81 0 21.46-2.677 30.9-7.742-.48-.303-.95-.624-1.413-.96-8.8 4.585-18.838 7.188-29.486 7.188-17.057 0-33.022-6.417-44.956-18.067-2.473-2.413-4.697-5.003-6.696-7.73-2.085-.245-4.17-.53-6.253-.86v25.27h-29.215v-33.44c-5.888-3.064-10.46-7.15-11.336-12.536 1.945-6.387 5.212-17.307 6.94-22.962.767-2.51 1.275-4.164 1.303-4.262l.158-.427c.673-1.575 1.658-2.836 2.934-3.803v-7.265L111.44 243.72c1.008-5.126 1.523-10.3 1.523-15.436 0-5.094-.424-9.63-1.136-13.797l49.31-21.823v39.33c3.11-6.762 7.452-12.974 12.944-18.345 11.93-11.666 27.897-18.09 44.963-18.09 17.306 0 33.252 6.367 44.896 17.928 3.572 3.546 6.648 7.497 9.196 11.763 2.6-4.173 5.715-8.07 9.328-11.602 11.928-11.665 27.896-18.09 44.97-18.09 17.303 0 33.244 6.368 44.886 17.93 8.15 8.09 13.72 18.272 16.35 29.547 6.318 2.763 11.38 6.704 12.833 12.326l.193.73-3.26 27.462-.096.326c-1.084 3.667-4.47 7.3-13.47 7.63-.042 0-.08.005-.122.006-.556.018-1.144.018-1.743.01-.104 0-.2.003-.304 0-.552-.01-1.14-.04-1.73-.076-.16-.01-.306-.01-.47-.02l.002-.002-.133-.006c-11.22 17.02-30.743 28.32-52.935 28.32-11.107 0-21.743-2.735-31.112-7.847-.437.345-.882.678-1.335.993 9.737 5.45 20.842 8.37 32.447 8.37 21.67 0 41.68-10.552 53.71-28.27.822.042 1.623.064 2.39.064 11.3 0 15.078-4.754 16.258-8.742l.097-.333.035-.12.015-.124 3.26-27.46.035-.286-.073-.28z" fill="#FFF"/><path d="M327.436 319.74c22.193 0 41.716-11.3 52.934-28.32l.133.006c.162.012.308.013.47.022.59.034 1.176.065 1.73.077.104.002.2-.002.303 0 .6.007 1.187.007 1.743-.01.04-.002.08-.007.12-.008 9.002-.328 12.387-3.962 13.47-7.63l.096-.325 3.26-27.46-.192-.73c-1.453-5.623-6.515-9.563-12.834-12.327-2.627-11.275-8.2-21.458-16.35-29.547-11.64-11.562-27.582-17.93-44.886-17.93-17.074 0-33.04 6.425-44.97 18.09-3.612 3.53-6.726 7.43-9.327 11.603-2.548-4.266-5.625-8.217-9.197-11.762-11.643-11.56-27.59-17.93-44.896-17.93-17.066 0-33.034 6.426-44.962 18.09-5.492 5.372-9.834 11.584-12.944 18.346v-39.33l-49.31 21.823c.712 4.168 1.136 8.703 1.136 13.797 0 5.135-.515 10.31-1.523 15.437l20.485-10.062v7.265c-1.276.967-2.26 2.228-2.933 3.803l-.158.427c-.028.097-.536 1.752-1.302 4.262-1.73 5.656-4.996 16.575-6.942 22.962.876 5.388 5.447 9.472 11.336 12.535v33.44h29.214v-25.27c2.084.33 4.168.616 6.253.862 2 2.726 4.224 5.316 6.696 7.73 11.933 11.65 27.9 18.066 44.955 18.066 10.648 0 20.685-2.603 29.486-7.188.464.336.935.657 1.413.96 2.417 1.53 5.002 2.642 7.535 3.294 4.64 1.128 6.044 1.206 10.234 2.238.343.366 4.278 4.604 4.278 4.604s3.935-4.238 4.278-4.604c4.19-1.032 5.597-1.11 10.234-2.238 2.867-.738 5.803-2.062 8.485-3.92.454-.315.898-.65 1.335-.994 9.37 5.113 20.006 7.85 31.114 7.85zm-141.042-59.5c-.09-1.007-.144-2.017-.144-3.035 0-2.534.283-5.003.81-7.388 7.87 1.103 15.4.882 21.16-.09-.628 3.08-1.31 6.688-1.918 9.983-6.86.588-13.432.753-19.876.53h-.032zm147.808 10.955c3.762-.13 7.51-.163 11.243-.084l.164.006c1.677.037 3.35.102 5.02.185.31.016.62.03.93.05 1.716.093 3.428.207 5.134.352l.065.005c-1.51 3.37-3.583 6.436-6.184 9.078-.864-.1-1.68-.173-2.405-.213-5.132-.28-11.342-.18-16.147 1.22l2.09-10.593c.03-.003.06-.004.09-.005zm-6.766 42.973c-8.786 0-17.25-1.858-24.914-5.38l.067-.098c.48-.627.933-1.28 1.36-1.955 2.367-3.76 3.846-8.27 3.846-13.444l-.002-.052c-.002-.986-.06-1.88-.146-2.727 5.583 3.477 12.053 5.5 18.883 5.5 14.868 0 27.264-7.448 33.763-18.948 6.062.917 13.174 2.45 18.99 5.06l.007-.013c-9.22 18.935-28.995 32.058-51.854 32.058zm55.33-26.744c1.538-2.767 2.874-5.655 3.972-8.655.556.326 1.093.664 1.584 1.017.15.107.287.22.428.33.138.108.277.217.407.33.174.143.34.286.49.435l.028.03c.136.127.24.265.37.385 1.767 1.66 2.16 4.8-1.283 5.66-.87.192-1.81.32-2.808.396-.99.074-2.035.094-3.13.07h-.057zm14.76-31.03c-.962 8.768-2.03 17.092-2.996 25.86-3.122-10.13-23.445-13.08-33.37-14.22-18.542-2.09-37.714-1-56.837 2.018l.002-.006c.215-.834.485-1.66.818-2.477.07-.176.125-.355.202-.53l1.915-4.346-2.148-.63.807-1.83-6.138-1.81c-1.87-.55-3.25-2.002-4.09-4.308l-2.033-5.552c.336-1.21.736-2.395 1.2-3.55 22.628-4.073 46.693-5.845 67.7-3.778 9.592.945 32.196 4.453 34.967 15.158zM286.36 217.632c8.162-7.98 18.41-13.272 29.606-15.42 3.732-.716 7.57-1.082 11.47-1.082 26.578 0 47.85 16.172 54.895 39.66-7.183-2.22-15.306-3.27-20.257-3.706-.913-.08-1.84-.147-2.764-.216-1.488-2.38-3.232-4.594-5.24-6.592-7.024-7-16.49-10.854-26.657-10.854-3.25 0-6.43.374-9.48 1.1-6.71 1.597-12.8 4.9-17.695 9.677-4.578 4.47-7.837 9.998-9.6 16.117-.312.98-.586 1.978-.817 2.99l-2.893 2.396c-1.597 1.328-3.226 2.003-4.83 2.003-2.142 0-4.582-1.043-6.207-2.656l-3.9-3.854-2.072 2.05c.597-3.515 1.523-6.94 2.765-10.246 2.815-7.975 7.437-15.265 13.675-21.368zm-108.38 0c10.884-10.64 25.466-16.502 41.067-16.502 25.487 0 46.09 14.868 53.957 36.795-2.402 3.98-4.156 8.577-5.204 13.392-1.62 1.457-3.894 2.39-5.914 2.39-1.603 0-3.226-.674-4.83-2.002l-.745-.616c-1.325-8.02-4.96-15.263-10.577-20.855-7.04-7.01-16.526-10.87-26.71-10.87-10.416 0-20.08 3.833-27.204 10.794-7.187 7.015-11.143 16.622-11.143 27.046 0 .923.045 1.836.11 2.745-4.055-.283-8.077-.72-12.107-1.3-1.83-.264-4.518-.626-7.566-1.166.064-15.125 6.048-29.27 16.865-39.852zm-60.158 16.77s.604-4.53.56-8.7c0-4.473-.612-7.77-.612-7.77l37.822-16.74v55.17c-7.73-1.805-15.884-4.835-18.11-10.12v-21.497l-19.66 9.658zm6.878 38.228c2.75-9.008 5.273-17.18 8.01-26.192 2.423 12.012 27.345 14.89 36.6 16.17 26.273 3.628 52.12.162 77.535-5.928-.726.85-1.604 1.44-2.64 1.746l-6.137 1.808 2.605 5.912c1.202 2.727 1.81 5.574 1.81 8.462 0 4.63-1.364 7.19-2.515 10.25-26.217 5.72-52.037 8.43-78.617 3.944-7.916-1.16-33.223-5.626-36.65-16.172zm30.89 40.17h-18.11v-17.528c.81.205 1.602.394 2.385.575.023.005.046.01.07.017 4.523 1.043 8.548 1.707 10.956 2.06.75.127 1.497.23 2.247.344v.017c.82.126 1.635.245 2.452.358V312.8zm25.112-12.643c1.253-.017 2.5-.05 3.75-.092l-.006-.005c8.714-.29 17.4-1.176 26.095-2.514 0 0 .004 0 .006.002.487-.075.974-.16 1.46-.236.937-.15 1.872-.295 2.808-.454 1.51-.256 3.018-.523 4.527-.805-.064.002-.127-.004-.19-.006 7.2-.163 13.8-2.064 19.394-5.337-.082.797-.136 1.643-.136 2.583 0 6.167 2.303 11.302 5.715 15.235-7.58 3.61-16.09 5.643-25.077 5.643-14.334-.002-27.805-4.96-38.346-14.013z"/><path d="M348.17 280.57c.726.04 1.54.114 2.406.213 2.6-2.642 4.673-5.708 6.183-9.078l-.066-.005c-1.706-.145-3.418-.26-5.134-.353l-.93-.048c-1.67-.084-3.343-.15-5.02-.186-.056 0-.11-.003-.165-.005-3.732-.08-7.48-.048-11.243.083l-.09.003-2.09 10.594c4.806-1.4 11.015-1.5 16.15-1.22zM206.302 259.71c.608-3.294 1.29-6.902 1.918-9.982-5.76.972-13.29 1.193-21.16.09-.527 2.385-.81 4.854-.81 7.388 0 1.017.053 2.028.144 3.036h.032c6.444.222 13.017.057 19.876-.53zM385.954 287.354c.998-.075 1.94-.204 2.808-.395 3.443-.86 3.05-4.002 1.283-5.662-.128-.12-.234-.26-.37-.385-.008-.01-.015-.02-.027-.03-.15-.15-.317-.292-.49-.435-.13-.113-.27-.222-.408-.33-.14-.11-.28-.222-.428-.33-.49-.353-1.028-.69-1.584-1.018-1.1 3-2.435 5.888-3.97 8.655h.056c1.095.023 2.14.003 3.13-.07zM137.48 239.064v7.177c2.225 5.286 10.38 8.316 18.11 10.12v-55.17l-37.823 16.74s.613 3.298.613 7.772c.043 4.17-.56 8.7-.56 8.7l19.658-9.657v14.32zM153.137 298.267c-.75-.115-1.498-.217-2.248-.344-2.41-.353-6.434-1.017-10.958-2.06l-.07-.017c-.783-.18-1.576-.37-2.383-.575v17.53h18.11v-14.158c-.818-.112-1.634-.232-2.453-.358v-.017z" fill="#FFF"/><path d="M168.682 258.65c4.03.58 8.05 1.016 12.106 1.3-.065-.91-.11-1.823-.11-2.745 0-10.425 3.957-20.032 11.143-27.047 7.126-6.96 16.79-10.795 27.204-10.795 10.184 0 19.67 3.86 26.71 10.87 5.62 5.593 9.253 12.836 10.577 20.855l.746.616c1.605 1.328 3.228 2.003 4.83 2.003 2.02 0 4.295-.934 5.914-2.39 1.048-4.815 2.802-9.412 5.204-13.393-7.866-21.927-28.47-36.795-53.957-36.795-15.602 0-30.184 5.86-41.066 16.5-10.817 10.584-16.8 24.728-16.863 39.852 3.047.54 5.736.903 7.565 1.167zM238.407 293.29c0-.94.054-1.785.136-2.582-5.593 3.273-12.193 5.175-19.395 5.337.064 0 .126.007.192.006-1.51.283-3.018.55-4.527.806-.936.16-1.872.305-2.807.454-.487.078-.974.162-1.46.236-.003 0-.006 0-.008-.002-8.696 1.338-17.38 2.225-26.095 2.514l.006.005c-1.25.04-2.498.075-3.75.092 10.54 9.054 24.01 14.012 38.345 14.012 8.987 0 17.496-2.032 25.077-5.643-3.41-3.93-5.715-9.066-5.715-15.233zM379.29 282.11l-.006.012c-5.817-2.61-12.928-4.143-18.99-5.06-6.5 11.5-18.896 18.947-33.763 18.947-6.83 0-13.3-2.023-18.882-5.5.086.847.145 1.74.146 2.728l.002.053c0 5.176-1.48 9.685-3.847 13.445-.427.676-.88 1.328-1.36 1.955-.012.014-.04.057-.068.098 7.665 3.522 16.128 5.38 24.914 5.38 22.86 0 42.633-13.123 51.854-32.06zM272.683 239.002c-1.242 3.305-2.168 6.73-2.765 10.247l2.073-2.052 3.9 3.854c1.625 1.613 4.065 2.656 6.206 2.656 1.605 0 3.234-.675 4.83-2.003l2.895-2.397c.233-1.012.506-2.008.817-2.99 1.764-6.118 5.023-11.646 9.6-16.117 4.896-4.777 10.987-8.08 17.697-9.676 3.05-.726 6.228-1.1 9.48-1.1 10.165 0 19.632 3.853 26.657 10.854 2.008 1.998 3.753 4.213 5.24 6.592.923.07 1.85.135 2.763.216 4.95.437 13.074 1.487 20.256 3.706-7.046-23.488-28.318-39.66-54.895-39.66-3.9 0-7.74.366-11.47 1.082-11.198 2.147-21.445 7.44-29.607 15.42-6.238 6.1-10.86 13.39-13.675 21.368zM381.888 295.617h.947v2.624h.608v-2.623h.95v-.494h-2.505M386.76 297.33l-.852-2.208h-.876v3.12h.563v-2.44h.02l.927 2.44h.423l.932-2.44h.015v2.44h.57v-3.12h-.868" fill="#FFF"/><path d="M161.348 288.803c26.58 4.485 52.4 1.777 78.617-3.945 1.15-3.058 2.516-5.62 2.516-10.25 0-2.887-.608-5.735-1.81-8.46l-2.604-5.913 6.137-1.808c1.036-.306 1.915-.897 2.64-1.746-25.416 6.09-51.262 9.556-77.534 5.928-9.257-1.28-34.178-4.157-36.602-16.17-2.737 9.013-5.26 17.185-8.01 26.193 3.427 10.546 28.734 15.012 36.65 16.173zm51.87-5.698c3.08-5.028 4.563-7.483 7.466-12.34-2.892.46-4.364.663-7.336 1.016l-.096.012.004-.097.098-2.603.072-.01c4.514-.536 6.715-.863 11.204-1.666l.102-.018-.09 2.15c-3.068 5.233-4.606 7.823-7.836 13.194l-.02.034-.037.004c-1.362.19-2.037.28-3.453.45l-.17.022.09-.147zm-18.96-8.795l.12-2.343.048-.02c1.442-.625 2.148-.938 3.596-1.59l.028-.007c1.017-.04 1.506-.062 2.495-.115l.09-.004-.007.092c-.287 5.622-.43 8.437-.72 14.058l-.003.073-.074.005c-1.27.067-1.887.095-3.15.14l-.088.005.566-11.1c-1.1.378-1.672.57-2.797.942l-.112.037.01-.172zm-22.736 6.513l.127-1.37.086.007c1.28.126 1.89.18 3.126.28l.075.008-.106 1.13c-.018.21.092.32.33.34 1.508.118 2.238.17 3.72.255.127.007.223-.015.285-.07.057-.047.087-.12.096-.216l.348-3.727c-.902.886-1.87 1.316-2.94 1.306-.085-.002-.168-.005-.25-.012-.69-.05-1.035-.076-1.72-.134-2.013-.167-3.026-1.265-2.857-3.085l.307-3.29c.08-.843.38-1.49.89-1.922.582-.486 1.424-.688 2.494-.6 1.982.165 2.95.232 4.94.344 2.048.115 3.043 1.137 2.873 2.956l-.798 8.56c-.08.86-.387 1.523-.916 1.98-.537.46-1.283.69-2.217.68-.087 0-.177-.003-.268-.008-1.918-.11-2.854-.174-4.768-.33-2.01-.166-3.024-1.26-2.855-3.082zM154.3 268.028l.06-.012c1.435-.316 2.14-.475 3.592-.82l.017-.002.018.003c.99.185 1.465.27 2.412.43l.068.013-.008.074c-.753 5.61-1.13 8.42-1.876 14.027l-.012.094-.09-.017c-1.217-.208-1.816-.316-3.046-.547l-.072-.014.01-.073c.588-4.408.884-6.63 1.47-11.007-1.11.143-1.677.212-2.783.34l-.094.01.334-2.498z" fill="#FFF"/><path d="M180.014 273.095c.02-.21-.087-.317-.325-.33-1.58-.092-2.345-.146-3.898-.27l-.05-.002c-.1-.002-.18.02-.235.066-.05.044-.083.116-.09.21l-.273 2.9c-.02.207.087.318.325.34.633.05.954.075 1.588.12.915.063 1.778-.077 2.716-.44l.24-2.595zM339.432 249.35c-1.725.01-2.563.024-4.296.07-.245.007-.366.113-.374.324l-.245 8.107c0 .096.026.167.072.216.056.054.146.08.27.077 1.73-.045 2.58-.06 4.312-.072.234 0 .36-.104.362-.31l.245-8.11c.003-.096-.02-.17-.07-.218-.055-.058-.146-.084-.278-.083z" fill="#FFF"/><path d="M362.56 241.237c-21.007-2.067-45.072-.295-67.7 3.777-.464 1.156-.864 2.34-1.2 3.55l2.033 5.553c.84 2.306 2.218 3.757 4.09 4.31l6.136 1.807-.808 1.83 2.148.63-1.915 4.348c-.077.174-.13.353-.202.528-.333.816-.603 1.643-.818 2.477l-.002.006c19.123-3.02 38.295-4.107 56.837-2.018 9.924 1.14 30.248 4.09 33.37 14.22.966-8.768 2.034-17.093 2.997-25.86-2.77-10.706-25.375-14.214-34.966-15.158zm-40.67 11.48c-.04 1.544-1.233 2.335-3.268 3.176-1.536.628-2.276.94-3.786 1.58-.59.253-.83.373-.85.814l-.04 1.502c3.072-.377 4.597-.537 7.71-.808l.095-.008-.082 2.74-.075.006c-3.632.314-7.312.725-10.932 1.223l-.093.013.147-4.892c.05-1.57 1.336-2.448 3.265-3.287 1.51-.65 2.253-.963 3.785-1.595.566-.237.83-.343.845-.798l.042-1.52c.004-.093-.02-.162-.064-.204-.068-.063-.185-.065-.268-.057-1.468.15-2.186.232-3.665.41-.238.03-.363.152-.374.364l-.037 1.355-.072.008c-1.226.153-1.822.23-3.04.395l-.095.015.045-1.62c.06-1.82 1.193-2.957 3.2-3.204 1.862-.228 2.772-.328 4.62-.514 1.066-.11 1.874.085 2.398.573.464.437.69 1.094.668 1.953l-.075 2.38zm20.95 5.288c-.052 1.823-1.166 2.792-3.22 2.802-2.154.01-3.208.027-5.356.088-.057.002-.117.005-.177.005-.99 0-1.74-.25-2.23-.738-.46-.46-.68-1.122-.65-1.97l.257-8.575c.053-1.824 1.193-2.86 3.216-2.917 2.16-.063 3.216-.08 5.36-.09l.023-.002c1.057 0 1.846.27 2.367.8.468.482.694 1.162.664 2.02l-.253 8.577zm15.746-10.73c-.12 4.256-.25 8.51-.374 12.76l-.045 1.363-.083-.007c-1.234-.1-1.843-.145-3.133-.228l-.082-.006v-.08c.117-3.667.227-7.333.332-11-1.065.26-1.635.405-2.778.702l-.106.026.075-2.503.058-.02c1.416-.517 2.118-.766 3.552-1.27l.01-.006h.02c.985.068 1.483.103 2.488.186l.072.007-.004.08zm21.21 5.516l-.01.024c-2.363 3.132-4.787 6.46-7.644 10.47l-.038.043-.05-.01c-1.388-.262-2.064-.382-3.42-.61l-.127-.02.076-.107c2.76-3.894 5.077-7.116 7.282-10.13-2.84-.633-4.307-.91-7.316-1.384l-.073-.01.072-2.717.086.014c3.816.592 7.572 1.372 11.162 2.32l.064.016-.065 2.1z" fill="#FFF"/><path d="M156.844 270.176c-.585 4.378-.88 6.6-1.47 11.007l-.01.073.073.014c1.23.23 1.83.34 3.046.547l.09.017.012-.093c.747-5.608 1.123-8.416 1.876-14.026l.01-.074-.07-.013c-.946-.16-1.42-.245-2.41-.43l-.02-.003-.017.003c-1.45.344-2.157.503-3.592.82l-.06.01-.33 2.5.094-.012c1.104-.127 1.67-.196 2.78-.34zM174.378 283.904c1.914.157 2.85.222 4.768.33.09.006.18.01.268.01.934.008 1.68-.22 2.216-.682.53-.456.834-1.12.916-1.98l.798-8.56c.17-1.817-.825-2.84-2.873-2.955-1.988-.112-2.957-.18-4.938-.345-1.07-.087-1.912.115-2.493.6-.51.433-.813 1.08-.892 1.924l-.306 3.29c-.17 1.82.844 2.917 2.856 3.084.685.058 1.03.084 1.72.134.083.008.166.01.25.012 1.07.01 2.04-.42 2.94-1.306l-.346 3.727c-.01.097-.04.17-.096.216-.062.055-.158.076-.285.07-1.48-.086-2.21-.137-3.72-.256-.237-.02-.346-.13-.328-.34l.106-1.13-.075-.006c-1.234-.1-1.846-.154-3.126-.28l-.087-.008-.127 1.37c-.17 1.822.843 2.917 2.855 3.082zm2.68-7.776c-.634-.044-.955-.07-1.59-.12-.237-.02-.344-.13-.324-.34l.272-2.9c.007-.094.04-.165.09-.21.056-.045.135-.068.237-.066h.05c1.552.126 2.317.18 3.896.273.237.013.344.12.324.33l-.24 2.592c-.938.365-1.8.506-2.716.44zM197.16 273.502l-.567 11.1.09-.004c1.262-.046 1.877-.074 3.15-.14l.073-.006.004-.073c.29-5.623.432-8.438.72-14.06l.007-.09-.09.004c-.99.053-1.48.075-2.496.115l-.027.007c-1.448.65-2.154.964-3.596 1.588l-.047.02-.12 2.344-.01.17.113-.037c1.124-.37 1.698-.562 2.796-.94zM216.75 282.782l.037-.004.02-.034c3.228-5.37 4.767-7.96 7.834-13.195l.092-2.15-.102.018c-4.488.803-6.69 1.13-11.204 1.667l-.072.01-.098 2.602-.004.097.096-.01c2.972-.354 4.445-.558 7.336-1.017-2.903 4.857-4.386 7.312-7.467 12.34l-.09.148.17-.022c1.415-.172 2.09-.262 3.452-.45zM318.9 247.812c-1.848.186-2.758.287-4.62.514-2.007.247-3.14 1.383-3.2 3.205l-.045 1.62.094-.015c1.218-.166 1.815-.243 3.04-.395l.073-.008.038-1.355c.012-.212.137-.335.375-.365 1.48-.177 2.197-.258 3.665-.41.083-.007.2-.006.268.058.045.04.068.11.064.204l-.042 1.52c-.015.455-.28.56-.845.798-1.533.632-2.276.945-3.786 1.595-1.93.84-3.217 1.718-3.266 3.287l-.147 4.892.094-.013c3.62-.498 7.302-.91 10.933-1.223l.075-.006.083-2.74-.093.008c-3.114.27-4.64.43-7.712.807l.042-1.503c.02-.44.26-.56.85-.813 1.51-.64 2.25-.952 3.785-1.58 2.035-.842 3.227-1.633 3.27-3.177l.074-2.378c.023-.86-.204-1.518-.668-1.954-.524-.49-1.332-.682-2.397-.574zM340.063 246.607h-.023c-2.144.01-3.2.028-5.36.092-2.023.058-3.163 1.092-3.216 2.916l-.257 8.576c-.03.847.19 1.51.65 1.97.49.488 1.24.737 2.23.737.06 0 .12-.004.177-.006 2.148-.06 3.2-.078 5.357-.088 2.054-.01 3.168-.978 3.22-2.802l.254-8.577c.03-.86-.196-1.538-.664-2.02-.52-.53-1.31-.8-2.367-.8zm-.53 11.152c-.003.206-.127.31-.36.31-1.734.01-2.583.028-4.312.073-.123.002-.214-.023-.27-.077-.046-.05-.073-.12-.073-.215l.245-8.106c.008-.21.128-.317.374-.323 1.733-.046 2.57-.06 4.296-.07.132-.002.223.024.28.083.048.05.07.12.067.218l-.246 8.11zM356.03 247.007h-.02l-.01.004c-1.434.504-2.136.753-3.552 1.27l-.057.022-.074 2.503.106-.026c1.144-.3 1.714-.442 2.778-.704-.106 3.668-.215 7.333-.332 11.002v.08l.083.005c1.292.083 1.9.127 3.134.23l.083.006.045-1.363c.125-4.25.253-8.505.374-12.76l.004-.077-.072-.007c-1.004-.084-1.503-.12-2.488-.186zM368.634 248.355l-.087-.015-.072 2.716.072.01c3.01.475 4.477.75 7.316 1.385-2.205 3.015-4.522 6.237-7.282 10.13l-.075.108.128.02c1.355.227 2.03.347 3.42.61l.05.01.037-.043c2.858-4.012 5.28-7.338 7.644-10.47l.01-.023.065-2.1-.065-.016c-3.588-.95-7.344-1.73-11.16-2.32z"/><g><path d="M262.786 293.827l-4.075-6.237-4.52 3.396s1.584.045 1.584 1.704v11.743l3.19-2.396v-8.303l3.638 5.57 3.37-2.53v-14.637l-3.186 2.396v9.294zM275.72 280.225l-3.6 2.703v-5.41l-4.86 3.652s1.582.043 1.582 1.703v11.744l3.278-2.462V286.8l3.6-2.7v5.35l3.118-2.344v-14.634l-3.117 2.343v5.41zM284.842 278.865v-10.9l-4.863 3.652s1.584.044 1.584 1.704v11.744l9.052-6.8c-.193-2.34 0-3.733 0-3.733l-5.774 4.335z" fill="#FFF"/><path d="M302.394 265.74l2.14-4.866-5.035-1.486c-2.198-.647-3.795-2.305-4.755-4.926l-2.226-6.086-4.948 4.104c-1.633 1.348-3.496 2.232-5.475 2.232-2.65 0-5.274-1.323-6.915-2.946l-3.19-3.158-3.19 3.158c-1.64 1.622-4.265 2.946-6.916 2.946-1.978 0-3.843-.884-5.47-2.232l-4.955-4.104-2.22 6.086c-.96 2.62-2.557 4.28-4.75 4.926l-5.045 1.486 2.145 4.867c1.08 2.452 1.895 5.464 1.895 8.87 0 8.308-4.073 9.96-4.073 18.68 0 2.66.452 5.15 1.262 7.437 2.748 7.755 9.625 13.193 17.056 15.106 4.758 1.203 6.976 1.322 10.524 2.312.464.487 3.738 4.028 3.738 4.028s3.278-3.542 3.738-4.028c3.548-.99 5.766-1.11 10.524-2.312 9.625-2.476 18.318-10.863 18.318-22.542 0-4.202-.95-6.765-1.923-9.22-1.06-2.64-2.154-5.155-2.154-9.46 0-3.406.817-6.418 1.898-8.87zm-27.92 50.392c-.33.31-2.483 2.648-2.483 2.648s-2.152-2.337-2.483-2.648c-2.593-.932-6.11-1.26-11.205-2.55-10.725-2.71-16.6-11.712-16.6-20.29 0-6.992 3.276-9.65 3.945-16.27.074-.757.12-1.56.12-2.43 0-6.63-3.164-12.232-3.164-12.232s7.78-.677 9.89-10.135c0 0 4.664 4.805 9.392 4.805 6.1 0 10.107-5.18 10.107-5.18s4.008 5.18 10.105 5.18c4.73 0 9.4-4.805 9.4-4.805 2.104 9.458 9.886 10.135 9.886 10.135s-3.165 5.6-3.165 12.232c0 8.508 4.064 10.912 4.064 18.7 0 8.578-5.875 17.578-16.596 20.29-5.102 1.29-8.618 1.618-11.21 2.55z" fill="#FFF"/><path d="M295.926 274.592c0-6.07 2.294-10.746 2.294-10.746s-5.294-1.07-7.758-7.77c0 0-3.52 3.278-8.367 3.278-6.068 0-10.105-4.263-10.105-4.263s-4.036 4.264-10.107 4.264c-4.85 0-8.36-3.277-8.36-3.277-2.47 6.7-7.763 7.77-7.763 7.77s2.294 4.676 2.294 10.745c0 9.005-4.07 11.608-4.07 18.7 0 9.912 7.723 16.22 14.884 18.04 5.673 1.44 9.383 1.603 11.875 2.805 0 0 .903.828 1.246 1.21.346-.382 1.25-1.21 1.25-1.21 2.487-1.203 6.197-1.365 11.866-2.804 7.165-1.82 14.89-8.13 14.89-18.042.003-7.09-4.07-9.693-4.07-18.698zm-45.27 0c0-3.85-.834-7.176-1.552-9.326 1.67-.918 3.77-2.54 5.44-5.33 1.798 1.005 4.346 2.02 7.34 2.02 4.533 0 8.077-1.98 10.106-3.47 2.028 1.49 5.568 3.47 10.105 3.47.726 0 1.427-.062 2.09-.165l-37.13 27.886c1.07-4.197 3.602-7.67 3.602-15.084zm5.058 32.772c-4.75-2.438-8.91-7.13-9.117-13.564l43.588-32.733c1.516 2.11 3.262 3.414 4.693 4.2-.718 2.15-1.552 5.476-1.552 9.325 0 1.6.12 3.014.315 4.293l-37.926 28.48zm28.757 1.45c-4.495 1.142-9.987 1.73-11.648 2.674-.375.273-.83.762-.83.762s-.457-.49-.832-.762c-1.66-.945-7.157-1.532-11.647-2.675-.17-.043-.34-.09-.51-.138l35.35-26.545c1.205 4.212 3.04 6.97 3.04 11.16 0 8.41-6.696 13.94-12.922 15.523z" fill="#FFF"/><path d="M303.313 266.147l2.605-5.912-6.137-1.808c-1.87-.552-3.25-2.003-4.088-4.31l-2.718-7.42-6.048 5.01c-1.597 1.327-3.226 2.002-4.83 2.002-2.142 0-4.582-1.044-6.207-2.657l-3.9-3.854-3.895 3.853c-1.63 1.613-4.07 2.656-6.212 2.656-1.603 0-3.226-.676-4.83-2.004l-6.05-5.008-2.71 7.42c-.844 2.306-2.22 3.757-4.092 4.31l-6.136 1.807 2.605 5.912c1.2 2.727 1.81 5.574 1.81 8.462 0 7.99-4.074 9.81-4.074 18.68 0 12.786 9.885 21.152 19.072 23.517 4.64 1.128 6.044 1.206 10.234 2.238.343.366 4.278 4.604 4.278 4.604s3.935-4.24 4.278-4.605c4.19-1.032 5.597-1.11 10.234-2.238 9.185-2.365 19.072-10.73 19.072-23.516 0-8.872-4.077-10.69-4.077-18.68.002-2.89.615-5.737 1.816-8.463zm-.665 17.924c.972 2.455 1.923 5.018 1.923 9.22 0 11.68-8.692 20.067-18.317 22.543-4.758 1.203-6.976 1.322-10.524 2.312-.46.487-3.74 4.028-3.74 4.028s-3.273-3.542-3.737-4.028c-3.548-.99-5.766-1.11-10.524-2.312-7.432-1.912-14.31-7.35-17.057-15.106-.81-2.288-1.262-4.776-1.262-7.436 0-8.72 4.074-10.372 4.074-18.68 0-3.406-.816-6.418-1.895-8.87l-2.146-4.866 5.044-1.486c2.193-.647 3.79-2.305 4.75-4.926l2.222-6.086 4.956 4.104c1.627 1.348 3.492 2.232 5.47 2.232 2.65 0 5.275-1.323 6.916-2.946l3.19-3.158 3.19 3.158c1.64 1.622 4.265 2.946 6.914 2.946 1.98 0 3.842-.884 5.475-2.232l4.948-4.104 2.226 6.086c.96 2.62 2.557 4.28 4.754 4.926l5.036 1.486-2.14 4.867c-1.082 2.452-1.9 5.464-1.9 8.87 0 4.304 1.093 6.82 2.154 9.46z"/><path d="M294.354 282.13l-35.35 26.545c.17.05.34.095.51.138 4.49 1.143 9.986 1.73 11.647 2.675.376.273.832.762.832.762s.456-.49.83-.762c1.662-.945 7.154-1.532 11.65-2.675 6.226-1.584 12.923-7.112 12.923-15.522 0-4.19-1.836-6.948-3.04-11.16zM282.096 261.955c-4.536 0-8.076-1.98-10.105-3.47-2.027 1.49-5.57 3.47-10.106 3.47-2.994 0-5.542-1.015-7.34-2.02-1.67 2.79-3.77 4.412-5.44 5.33.72 2.15 1.554 5.477 1.554 9.326 0 7.414-2.532 10.888-3.603 15.084l37.13-27.885c-.66.104-1.363.165-2.09.165zM293.326 274.592c0-3.85.835-7.176 1.552-9.326-1.43-.784-3.177-2.09-4.693-4.2L246.597 293.8c.208 6.434 4.367 11.126 9.117 13.564l37.927-28.48c-.193-1.278-.314-2.693-.314-4.292zm-27.353 22.18l-3.37 2.53-3.64-5.57v8.304l-3.19 2.396V292.69c0-1.66-1.584-1.705-1.584-1.705l4.52-3.396 4.076 6.236v-9.294l3.187-2.396v14.636zm12.865-9.665l-3.117 2.345V284.1l-3.6 2.702v5.354l-3.278 2.462v-11.744c0-1.66-1.58-1.703-1.58-1.703l4.858-3.65v5.41l3.6-2.704v-5.41l3.118-2.342v14.633zm11.778-8.843l-9.052 6.8V273.32c0-1.66-1.585-1.704-1.585-1.704l4.862-3.652v10.9l5.774-4.335s-.194 1.394 0 3.734z"/><path d="M302.28 293.29c0-7.786-4.063-10.19-4.063-18.698 0-6.63 3.165-12.232 3.165-12.232s-7.782-.677-9.887-10.135c0 0-4.67 4.805-9.4 4.805-6.096 0-10.104-5.18-10.104-5.18s-4.007 5.18-10.106 5.18c-4.727 0-9.393-4.805-9.393-4.805-2.108 9.458-9.888 10.135-9.888 10.135s3.165 5.6 3.165 12.232c0 .87-.046 1.673-.12 2.43-.67 6.62-3.946 9.278-3.946 16.27 0 8.578 5.876 17.578 16.6 20.29 5.098 1.29 8.614 1.618 11.206 2.55.33.31 2.484 2.648 2.484 2.648s2.153-2.337 2.484-2.648c2.593-.932 6.11-1.26 11.21-2.55 10.722-2.71 16.597-11.712 16.597-20.29zm-17.172 18.043c-5.67 1.44-9.38 1.602-11.867 2.804 0 0-.902.828-1.25 1.21-.342-.382-1.245-1.21-1.245-1.21-2.492-1.203-6.2-1.365-11.875-2.804-7.16-1.82-14.883-8.13-14.883-18.042 0-7.09 4.07-9.693 4.07-18.698 0-6.07-2.295-10.746-2.295-10.746s5.294-1.07 7.762-7.77c0 0 3.512 3.278 8.36 3.278 6.072 0 10.108-4.263 10.108-4.263s4.036 4.264 10.105 4.264c4.847 0 8.367-3.277 8.367-3.277 2.464 6.7 7.758 7.77 7.758 7.77s-2.294 4.676-2.294 10.745c0 9.005 4.073 11.608 4.073 18.7 0 9.912-7.727 16.22-14.892 18.04z"/><path d="M291.745 316.163c-1.448 0-2.625 1.173-2.625 2.625 0 1.447 1.177 2.622 2.625 2.622 1.44 0 2.617-1.175 2.617-2.622 0-1.452-1.177-2.625-2.617-2.625zm0 4.683c-1.145 0-2.064-.92-2.064-2.058 0-1.14.92-2.062 2.065-2.062 1.133 0 2.056.922 2.056 2.062 0 1.138-.922 2.058-2.055 2.058z" fill="#FFF"/><path d="M292.817 318.18c0-.495-.4-.89-.89-.89h-1.267v2.995h.565v-1.218h.403l.568 1.218h.62l-.588-1.27c.343-.122.59-.452.59-.836zm-.89.326h-.7v-.656h.7c.182 0 .33.146.33.33 0 .18-.15.326-.33.326z" fill="#FFF"/></g></g></g></svg>